<?xml version="1.0" standalone="no"?>
<!DOCTYPE svg PUBLIC "-//W3C//DTD SVG 20010904//EN"
 "http://www.w3.org/TR/2001/REC-SVG-20010904/DTD/svg10.dtd">
<svg version="1.0" xmlns="http://www.w3.org/2000/svg"
 width="1880.000000pt" height="1254.000000pt" viewBox="0 0 1880.000000 1254.000000"
 preserveAspectRatio="xMidYMid meet">
<metadata>
Created by potrace 1.16, written by Peter Selinger 2001-2019
</metadata>
<g transform="translate(0.000000,1254.000000) scale(0.100000,-0.100000)"
fill="#000000" stroke="none">
<path d="M18020 12533 c0 -12 62 -116 121 -205 33 -48 66 -109 75 -135 16 -48
54 -132 197 -438 96 -207 140 -294 191 -380 108 -180 108 -180 4 -75 -51 53
-149 154 -218 226 -69 72 -208 209 -310 305 -101 96 -204 195 -229 222 -25 26
-49 47 -53 47 -18 0 138 -211 257 -350 68 -79 123 -145 121 -147 -3 -4 -201
197 -282 287 -63 70 -90 91 -56 42 12 -16 22 -33 22 -37 0 -16 170 -220 305
-365 38 -42 136 -150 217 -240 80 -91 162 -182 181 -202 19 -21 29 -38 21 -38
-14 0 -73 48 -214 174 -47 42 -88 76 -92 76 -4 0 1 -20 12 -45 11 -25 17 -45
14 -45 -9 0 -295 201 -364 255 -78 62 -331 230 -415 275 l-60 32 55 -52 c77
-73 234 -198 395 -315 216 -157 365 -274 365 -287 0 -4 -12 -3 -27 2 -30 10
-369 61 -573 86 -69 9 -208 29 -310 45 -296 48 -306 49 -321 48 -23 0 190 -75
456 -159 266 -84 439 -131 545 -150 99 -18 498 -151 505 -168 3 -8 4 -16 3
-17 -2 -2 -42 3 -90 10 -141 21 -788 75 -903 75 -37 0 -69 6 -82 15 -59 42
-401 195 -388 175 9 -15 174 -122 223 -145 23 -11 42 -23 42 -27 0 -9 -127 -1
-205 12 -27 5 -52 7 -53 5 -12 -11 288 -75 352 -75 13 0 92 -33 177 -74 148
-70 227 -105 405 -178 44 -18 82 -37 83 -42 1 -5 -31 -23 -71 -41 -154 -67
-482 -236 -688 -355 -118 -68 -258 -143 -310 -167 -212 -98 -231 -108 -221
-111 23 -8 216 80 596 268 220 110 478 242 573 295 154 86 176 96 200 87 162
-60 462 -177 517 -204 39 -18 73 -34 78 -36 4 -2 7 3 7 11 0 19 -52 52 -105
66 -22 6 -105 40 -185 77 -80 36 -171 76 -202 87 -32 12 -58 25 -58 28 0 13
106 48 162 54 47 5 82 0 185 -26 110 -29 131 -38 165 -69 l38 -37 0 520 0 519
-47 67 c-26 36 -101 136 -168 221 -66 85 -168 224 -228 310 -120 174 -210 300
-213 300 -1 0 0 -10 3 -22 4 -19 0 -17 -26 12 -16 19 -42 56 -58 82 -25 43
-43 60 -43 41z m-184 -1717 c82 -8 228 -20 324 -26 280 -17 435 -31 441 -38 3
-4 27 -37 52 -74 52 -77 53 -77 -58 -53 -114 24 -203 20 -308 -15 l-91 -31
-75 37 c-123 60 -373 179 -411 197 -19 9 -32 16 -29 16 3 1 73 -6 155 -13z"/>
<path d="M18520 10372 c0 -4 16 -31 35 -59 19 -29 35 -55 35 -57 0 -3 -15 -3
-32 1 l-33 6 19 -21 19 -22 -74 0 c-41 0 -103 -7 -139 -15 -115 -27 -321 -104
-470 -177 -128 -62 -398 -158 -444 -158 -9 0 -16 -5 -16 -11 0 -8 16 -10 50
-6 28 3 50 2 50 -2 0 -14 -287 -140 -444 -195 -36 -13 -8 -17 35 -6 51 14 339
126 452 177 126 56 612 158 930 194 129 14 115 22 191 -112 l15 -26 -57 -7
c-47 -6 -60 -4 -82 13 -39 31 -141 93 -145 89 -2 -1 19 -28 46 -57 35 -39 46
-57 37 -62 -11 -5 -167 -26 -343 -45 -27 -3 -113 -16 -190 -29 -77 -13 -179
-29 -227 -35 -49 -7 -109 -18 -135 -25 -47 -13 -46 -13 67 -14 63 0 164 4 223
8 62 5 125 5 148 0 72 -16 706 -109 745 -109 12 0 14 55 14 336 0 221 -3 333
-10 329 -5 -3 -10 -1 -10 5 0 6 -8 10 -17 9 -35 -3 -54 1 -48 11 4 6 -1 7 -11
3 -12 -4 -15 -3 -10 5 5 8 2 10 -8 6 -13 -5 -11 -10 9 -26 14 -11 25 -24 25
-29 0 -8 -74 43 -90 62 -6 7 -99 59 -105 59 -3 0 -5 -3 -5 -8z m68 -192 c7 -3
-19 -12 -60 -19 -40 -7 -163 -35 -272 -62 -110 -27 -202 -49 -205 -48 -14 1
229 114 279 130 43 14 75 17 150 12 52 -3 101 -9 108 -13z"/>
<path d="M18780 9573 c6 -3 3 -15 -8 -31 -11 -15 -30 -47 -44 -72 -95 -172
-88 -165 -155 -163 -21 1 -15 -15 10 -28 12 -6 23 -13 25 -14 2 -2 -4 -17 -13
-35 -11 -21 -21 -29 -33 -26 -27 7 -170 34 -246 46 -38 6 -94 8 -124 4 l-55
-7 24 -18 c32 -25 18 -24 -75 6 -69 22 -151 40 -264 59 -21 4 -31 2 -27 -4 19
-31 162 -77 387 -125 121 -27 193 -48 240 -71 36 -18 69 -37 71 -41 3 -5 -13
-37 -36 -73 -48 -78 -237 -450 -237 -467 0 -26 21 -10 128 95 129 127 230 237
284 309 l38 53 56 -25 c31 -14 60 -25 65 -25 5 0 8 141 7 327 -2 255 -6 327
-16 329 -7 1 -8 0 -2 -3z"/>
<path d="M13513 9274 c-84 -30 -178 -144 -158 -191 8 -17 8 -17 12 0 4 15 39
24 68 17 6 -2 21 -5 35 -8 14 -3 29 -11 33 -18 6 -11 13 -11 33 -2 19 9 30 9
45 0 10 -7 24 -12 31 -12 26 -1 85 -35 81 -47 -3 -7 -9 -13 -14 -13 -6 0 -8 4
-5 9 7 11 -76 43 -116 45 -48 2 -46 -29 3 -48 41 -17 46 -25 27 -44 -9 -9 -4
-12 26 -12 41 0 71 -22 62 -45 -7 -19 -13 -19 -65 0 -48 17 -55 3 -10 -21 19
-10 43 -14 60 -10 16 3 29 1 29 -4 0 -6 21 -10 48 -11 38 -1 42 -2 22 -9 -23
-7 -22 -8 10 -9 41 -1 80 8 80 19 0 4 -27 10 -61 13 -33 3 -63 7 -65 10 -9 8
8 36 25 42 9 3 119 -31 243 -75 125 -44 260 -85 300 -91 134 -21 287 5 328 57
9 11 10 15 2 10 -7 -4 -34 -9 -60 -12 -26 -2 -61 -7 -79 -10 -18 -2 -40 0 -50
5 -28 15 -90 41 -98 41 -3 0 -4 -4 -1 -9 4 -5 0 -11 -6 -14 -7 -2 2 -4 21 -5
18 0 39 -6 45 -13 8 -9 5 -10 -14 -5 -14 3 -49 9 -79 13 -30 3 -74 17 -100 30
-28 16 -47 21 -49 14 -2 -6 -11 -11 -20 -11 -14 0 -14 2 -3 9 7 5 10 14 7 20
-4 6 -12 9 -17 5 -5 -3 -32 6 -59 20 -27 14 -59 26 -70 26 -11 0 -61 20 -112
45 -50 25 -98 43 -105 40 -8 -2 -12 -1 -9 3 3 5 -12 14 -32 22 -20 7 -61 30
-92 51 -42 29 -62 36 -85 32 -23 -3 -26 -2 -15 6 17 12 7 25 -27 36 -14 4 -23
2 -23 -4 0 -6 7 -11 15 -11 10 0 15 -10 15 -32 -1 -32 -1 -32 -16 -13 -8 11
-29 25 -47 31 -26 9 -32 16 -32 40 0 25 4 28 30 29 22 0 29 4 27 16 -3 21 15
35 64 53 21 8 32 15 24 15 -8 -1 -34 -7 -57 -15z"/>
<path d="M9130 9236 c-78 -27 -211 -137 -270 -221 -64 -92 -224 -559 -236
-685 -1 -20 0 -24 3 -10 8 42 23 47 24 10 1 -20 3 -26 6 -15 50 224 139 496
211 644 36 75 152 190 232 230 86 43 150 43 208 1 102 -74 142 -202 158 -513
l7 -134 -25 -6 c-25 -7 -122 -86 -115 -94 3 -2 22 8 43 22 40 27 81 41 91 31
8 -8 -44 -74 -70 -87 -18 -10 -17 -6 7 20 17 17 25 31 19 31 -6 0 -32 -26 -59
-57 -27 -32 -83 -90 -124 -129 -52 -50 -85 -92 -108 -137 -32 -65 -41 -107
-22 -107 6 0 10 14 10 30 0 17 6 33 14 36 7 3 19 24 27 47 10 31 39 68 117
145 57 56 108 102 114 102 6 0 20 7 30 17 10 9 18 14 18 11 0 -3 -35 -34 -77
-68 -119 -96 -153 -131 -178 -180 -34 -69 -67 -168 -59 -181 4 -7 -1 -18 -11
-26 -17 -11 -17 -13 -2 -13 17 0 41 33 31 43 -11 11 28 123 61 173 18 28 54
69 80 90 26 21 76 65 113 98 37 32 68 53 70 46 6 -17 42 19 42 42 0 10 5 18
10 18 6 0 10 7 10 16 0 8 14 33 32 54 24 31 34 37 44 29 18 -15 63 36 64 71 1
31 26 62 63 78 30 13 39 11 76 -22 l24 -21 -6 24 c-4 16 -3 21 4 14 29 -29 37
-149 14 -193 -14 -27 -14 -32 1 -55 23 -35 15 -93 -36 -250 -33 -101 -49 -136
-76 -163 -19 -20 -33 -43 -32 -51 2 -10 27 -24 63 -35 33 -10 77 -26 99 -35
l38 -17 -38 -1 c-22 -1 -59 9 -88 23 -67 33 -136 47 -136 28 0 -8 5 -14 12
-14 6 0 3 -6 -8 -14 -16 -12 -17 -18 -7 -34 13 -22 6 -63 -22 -127 -10 -22
-28 -75 -42 -117 -20 -65 -28 -78 -46 -79 -17 -1 -18 -2 -4 -6 20 -5 21 -14 6
-66 -10 -36 -12 -38 -28 -23 -10 9 -24 16 -32 16 -8 0 6 -13 31 -30 57 -38
155 -59 242 -53 63 5 67 7 70 32 3 23 7 26 38 22 32 -3 49 -15 50 -33 0 -5
-16 -8 -37 -8 -48 0 -40 -6 21 -14 33 -5 46 -4 41 3 -3 6 -2 11 4 11 6 0 13
11 17 25 6 25 8 25 110 25 63 0 104 -4 104 -10 0 -19 42 -10 47 10 5 19 12 20
105 18 l100 -3 2 -87 3 -88 -31 -4 c-17 -3 -60 -7 -96 -10 -36 -3 -81 -8 -100
-11 -28 -5 -32 -4 -20 5 12 10 11 10 -5 3 -11 -4 -56 -8 -100 -9 -44 -1 -125
-7 -180 -13 -122 -15 -279 -3 -375 29 -36 12 -67 25 -70 29 -3 3 -18 13 -34
21 -16 8 -45 30 -64 47 -20 18 -40 33 -44 33 -16 0 27 -37 112 -95 103 -70
101 -68 71 -63 -20 3 -26 -4 -41 -47 -33 -92 -99 -310 -105 -345 -9 -52 -38
-109 -57 -116 -10 -3 -18 -11 -19 -17 -1 -7 -9 13 -19 43 -12 38 -23 55 -34
55 -25 0 -39 31 -30 68 4 18 8 37 9 42 5 42 19 63 46 69 39 7 47 31 20 60
l-21 23 25 88 c39 132 24 112 -19 -28 -21 -67 -51 -150 -67 -184 -30 -64 -37
-99 -18 -87 7 4 9 -1 7 -12 -2 -11 -9 -18 -15 -17 -7 2 -15 -7 -19 -20 -4 -12
-13 -26 -21 -32 -9 -7 -11 -20 -7 -44 l7 -33 13 23 c7 13 13 35 14 47 0 15 4
22 13 18 6 -3 20 -9 30 -12 12 -4 17 -13 14 -25 -3 -11 -1 -16 4 -13 5 3 8 15
7 27 -2 12 2 23 7 25 10 3 37 -76 48 -141 5 -34 4 -37 -19 -37 -13 0 -25 -6
-25 -12 -4 -35 3 -114 10 -121 12 -12 -31 -147 -47 -147 -9 0 -10 5 -2 19 14
27 13 30 -10 24 -25 -7 -25 3 1 75 11 31 21 83 22 115 2 56 2 57 -15 35 -12
-16 -18 -19 -18 -8 0 13 -1 13 -10 0 -13 -20 -13 -33 1 -24 8 5 8 1 0 -14 -6
-11 -8 -27 -5 -35 3 -9 -2 -16 -13 -19 -18 -5 -38 -47 -116 -242 -34 -83 -35
-90 -19 -103 16 -13 15 -14 -5 -10 -18 4 -23 -2 -32 -38 -6 -24 -18 -50 -26
-59 -17 -16 -20 -30 -5 -21 5 3 27 -3 49 -15 51 -25 65 -25 83 2 9 13 19 18
27 14 8 -6 9 -11 1 -20 -9 -12 -100 -281 -100 -299 0 -5 5 -5 11 -1 7 4 1 -7
-11 -24 -19 -26 -25 -29 -34 -17 -17 22 -96 45 -117 34 -17 -8 -98 -240 -115
-329 -9 -43 25 -75 80 -75 40 0 48 7 66 58 17 47 30 30 15 -20 -7 -27 -25 -86
-38 -133 -34 -120 -108 -304 -169 -423 -76 -149 -165 -277 -347 -505 -128
-161 -164 -212 -171 -245 -6 -33 -8 -36 -9 -14 -1 16 -5 26 -10 23 -10 -7 -20
29 -23 87 -1 21 -6 41 -11 44 -4 2 -5 -17 -2 -44 14 -125 14 -125 -34 -152
l-44 -24 -18 21 -17 22 2 -25 c0 -14 7 -25 15 -25 7 0 11 -6 8 -14 -6 -15 22
-46 41 -46 7 0 12 -5 12 -11 0 -6 -13 -8 -30 -5 -32 5 -49 -9 -31 -27 12 -12
-13 -36 -38 -37 -8 0 -30 -12 -49 -27 -21 -15 -33 -20 -30 -12 4 10 -1 15 -13
15 -11 0 -19 -4 -19 -9 0 -4 -4 -6 -9 -3 -12 8 -41 -4 -41 -16 0 -6 6 -8 14
-5 15 6 36 -11 36 -28 0 -5 -7 -1 -15 9 -13 17 -15 18 -15 3 0 -27 3 -32 20
-29 12 2 11 0 -2 -11 -10 -8 -15 -17 -11 -20 3 -4 1 -13 -6 -21 -7 -8 -9 -25
-5 -40 4 -16 1 -32 -6 -41 -8 -10 -9 -15 -1 -15 13 0 25 44 18 65 -4 8 -2 17
2 19 4 3 14 -13 21 -35 11 -33 18 -40 35 -37 12 3 27 -1 33 -9 7 -7 20 -13 30
-13 10 0 13 3 7 8 -5 4 -15 17 -22 28 -11 19 -10 21 8 17 12 -3 18 -11 15 -19
-4 -10 3 -14 22 -14 25 -1 26 -2 9 -14 -13 -10 -15 -16 -6 -21 6 -4 14 -3 18
4 4 6 26 13 48 16 34 4 42 2 46 -12 5 -18 11 27 8 57 -1 10 6 6 20 -10 21 -24
21 -24 15 -3 -5 17 -1 29 18 48 27 27 32 57 16 99 -7 19 -6 26 2 26 7 0 3 7
-8 15 -18 14 -18 14 9 15 21 0 27 5 27 21 0 11 5 30 11 42 10 21 10 21 -5 3
-9 -11 -16 -16 -16 -10 0 5 19 30 43 55 23 26 49 57 57 69 8 12 49 65 90 118
81 105 75 101 375 263 50 27 85 49 78 49 -12 0 -199 -98 -285 -151 -27 -16
-48 -26 -48 -23 0 4 35 55 78 113 119 160 176 247 262 401 55 98 64 115 71
120 3 3 6 14 6 25 0 11 22 70 48 130 68 161 247 632 290 765 21 63 40 118 44
122 8 9 178 -99 200 -125 11 -14 11 -21 -3 -42 -9 -13 -16 -28 -16 -32 0 -4 5
0 11 10 5 9 15 17 20 17 6 0 17 6 25 14 12 13 11 15 -6 21 -11 3 -20 10 -20
14 0 4 -43 38 -96 76 -52 37 -93 70 -90 73 8 7 154 -94 277 -193 556 -444 893
-1080 943 -1778 3 -51 1 -70 -9 -73 -7 -3 -15 -14 -18 -25 -6 -21 3 -25 20 -8
14 14 17 -215 3 -361 -18 -198 -85 -481 -161 -680 -69 -181 -197 -406 -332
-585 -57 -77 -185 -226 -217 -253 -13 -11 -12 -12 5 -3 22 11 117 108 178 183
55 67 147 187 147 192 0 3 13 24 28 48 16 24 42 64 59 90 17 26 34 44 38 40 5
-4 5 -2 2 4 -8 14 109 251 136 279 13 12 17 26 12 44 -4 17 -3 21 4 12 6 -10
12 -4 21 23 6 19 8 41 4 47 -4 8 -3 9 4 5 7 -4 15 9 22 36 6 24 17 63 25 88
80 257 114 663 81 957 -19 171 -36 258 -83 423 -45 160 -83 261 -94 254 -5 -3
-6 1 -3 9 5 14 -69 187 -80 187 -3 0 10 -34 29 -77 20 -42 34 -78 32 -80 -2
-2 -21 34 -42 79 -21 45 -54 106 -72 137 -18 30 -33 60 -33 65 1 10 8 2 38
-41 7 -10 6 -5 -2 12 -8 17 -22 39 -30 50 -15 19 -16 19 -9 1 4 -13 3 -17 -5
-12 -7 4 -12 12 -12 17 0 5 -11 27 -25 48 -14 21 -23 45 -20 53 3 8 -2 21 -12
29 -16 13 -17 12 -4 -4 8 -9 11 -20 8 -23 -8 -8 -29 35 -22 46 3 5 0 8 -7 5
-7 -3 -28 17 -48 47 -19 28 -39 56 -45 62 -6 6 -40 47 -77 91 -70 85 -197 211
-313 312 -63 55 -304 229 -331 240 -12 4 -16 53 -5 53 16 0 216 -140 321 -225
336 -272 593 -610 760 -1000 161 -374 218 -679 207 -1095 -8 -275 -47 -512
-121 -725 -237 -689 -678 -1199 -1313 -1519 -243 -122 -449 -191 -718 -241
-266 -48 -433 -54 -754 -25 -203 18 -438 79 -681 177 -237 95 -440 200 -463
239 -5 8 -13 12 -18 8 -12 -7 -127 78 -254 187 -117 100 -298 287 -376 391
-69 90 -190 268 -192 282 -1 5 -8 17 -15 25 -7 9 -12 20 -12 24 1 4 -8 19 -20
34 -11 14 -25 43 -30 64 -6 22 -15 39 -20 39 -6 0 -10 4 -10 10 0 5 -11 33
-24 62 -43 91 -97 241 -107 293 -19 97 -21 105 -30 105 -5 0 -8 8 -7 17 3 25
-13 106 -23 119 -12 15 -32 179 -36 294 -9 298 -9 452 -1 505 5 33 10 79 10
103 0 23 4 42 8 42 5 0 6 9 3 20 -3 11 -2 28 2 37 5 10 10 32 12 48 16 117
105 391 183 559 86 187 224 406 359 571 14 17 90 95 171 175 412 411 973 677
1570 746 173 20 506 15 665 -10 143 -23 335 -68 335 -79 0 -5 -10 -7 -22 -4
-12 4 -28 2 -34 -4 -9 -7 -43 -4 -111 10 -54 11 -125 23 -158 25 -44 4 -30 -1
55 -18 175 -36 201 -45 199 -64 -3 -34 2 -41 37 -54 29 -10 34 -16 29 -35 -7
-28 11 -40 20 -13 8 24 17 25 55 5 17 -9 30 -13 30 -10 0 3 21 -8 48 -26 26
-18 44 -29 40 -25 -4 5 -2 20 4 35 5 14 27 87 48 161 22 74 46 158 55 185 9
28 19 56 21 63 2 7 14 16 27 21 21 8 37 29 37 47 0 3 -13 10 -30 15 -17 6 -30
18 -30 27 0 12 -5 9 -13 -8 -11 -21 -10 -27 2 -40 13 -13 12 -15 -3 -18 -13
-3 -16 -10 -12 -27 3 -13 2 -34 -3 -47 -9 -21 -10 -20 -11 12 -1 33 -2 33 -11
11 -5 -13 -7 -33 -3 -44 5 -14 2 -19 -7 -15 -425 159 -995 209 -1459 127 -676
-120 -1276 -462 -1704 -973 -333 -398 -562 -921 -626 -1432 -47 -366 -22 -739
74 -1109 106 -409 353 -850 658 -1170 172 -183 317 -310 451 -399 32 -21 56
-40 55 -42 -8 -7 -1957 -21 -2441 -16 -164 1 -275 -1 -285 -7 -12 -7 37 -11
158 -12 374 -2 376 -2 340 -10 -20 -4 0 -5 48 -2 79 5 84 4 89 -16 7 -28 21
-27 25 1 3 23 4 23 169 23 151 0 169 -2 188 -19 22 -20 22 -20 27 1 l6 22 639
1 c568 1 639 -1 639 -15 0 -14 49 -21 110 -17 8 1 31 -3 50 -8 19 -5 39 -9 44
-9 17 1 25 -26 11 -41 -7 -8 -16 -37 -19 -65 -4 -27 -10 -70 -15 -95 -5 -25
-8 -46 -6 -48 5 -6 32 44 44 83 7 22 26 76 43 120 l30 80 96 0 97 0 110 -61
c258 -144 568 -255 865 -310 219 -40 219 -40 190 -47 -14 -3 -79 -15 -145 -27
-66 -13 -124 -26 -130 -30 -5 -4 -30 -11 -54 -15 -43 -7 -43 -7 -37 -43 5 -35
19 -52 44 -52 6 0 12 8 12 18 0 14 2 15 10 2 8 -13 11 -12 23 4 9 12 20 17 31
13 10 -4 16 -1 16 8 0 8 5 15 10 15 6 0 10 -7 10 -15 0 -19 9 -19 34 0 12 9
22 11 26 6 3 -6 20 -7 43 -1 22 4 39 4 43 -1 3 -5 11 -9 17 -8 7 1 22 -2 34
-6 30 -10 36 -57 24 -175 -10 -88 -9 -95 10 -113 21 -19 16 -42 -7 -33 -14 5
-19 -8 -27 -72 -3 -25 0 -32 11 -27 8 3 12 0 9 -7 -2 -7 -9 -12 -15 -11 -6 2
-13 -23 -17 -55 -3 -31 -8 -67 -11 -79 -3 -16 0 -23 12 -23 12 0 14 -7 9 -32
-4 -18 -14 -40 -21 -49 -8 -9 -18 -52 -22 -97 -7 -71 -6 -82 8 -82 18 0 33 68
50 230 10 84 21 165 50 350 5 30 12 80 16 110 4 30 14 64 23 74 12 14 13 20 4
23 -18 6 -16 23 2 23 8 0 15 4 15 8 0 9 29 10 45 1 9 -5 57 -5 131 0 12 0 26
12 32 26 8 17 19 25 34 24 22 -1 22 -1 -2 -9 -22 -7 -23 -8 -4 -9 12 -1 36 4
53 10 24 9 35 9 44 0 12 -12 47 -15 47 -3 0 4 21 8 48 9 26 1 63 5 84 9 31 5
37 3 43 -16 5 -17 9 -19 22 -9 12 10 16 10 23 -2 8 -12 13 -12 30 -1 16 10 25
10 35 2 7 -6 17 -10 21 -9 43 7 54 -1 55 -43 1 -24 5 -56 9 -73 7 -29 8 -29
10 10 1 23 4 31 7 20 3 -11 19 -35 36 -53 30 -31 32 -32 39 -12 10 27 28 17
21 -11 -6 -20 -5 -20 19 3 14 13 31 34 38 47 10 19 14 21 21 10 6 -9 7 2 4 31
-4 31 -3 39 4 25 8 -19 9 -19 16 -2 4 10 14 16 21 13 9 -3 14 2 14 14 0 11 5
20 10 20 6 0 10 -12 10 -27 1 -23 2 -25 10 -12 5 10 8 37 6 60 -6 63 -7 67
-16 39 -8 -24 -8 -24 -15 9 -5 20 -15 36 -27 38 -10 3 -18 10 -18 16 0 15 -32
36 -57 37 -13 0 -23 5 -23 10 0 6 -7 10 -16 10 -8 0 -13 -4 -10 -9 3 -5 -15
-8 -39 -7 -65 2 -55 21 18 36 163 32 534 161 621 215 26 16 80 29 72 17 -2 -4
-1 -14 4 -21 6 -11 12 -11 30 2 13 9 17 16 9 19 -20 7 6 42 48 64 21 10 44 25
51 31 7 7 18 13 24 13 6 0 19 7 29 16 17 15 18 14 16 -10 -1 -15 -9 -31 -17
-36 -24 -15 -6 -12 28 6 40 19 45 29 27 44 -20 17 -9 30 23 29 15 0 21 -3 14
-6 -6 -2 -9 -9 -6 -14 3 -6 11 -3 18 7 11 14 16 15 35 4 13 -6 21 -8 18 -3 -4
6 8 11 26 12 18 1 79 5 137 9 91 6 109 5 137 -11 17 -10 34 -25 37 -33 3 -8
11 -12 17 -8 6 3 15 0 20 -7 8 -12 11 -12 19 1 9 13 10 13 11 0 1 -8 1 -23 0
-32 -1 -10 2 -18 7 -18 14 0 24 -39 22 -81 -1 -33 13 -59 26 -46 3 3 -2 55
-10 116 -20 139 -20 131 5 131 11 0 17 -5 14 -10 -3 -6 -1 -10 4 -10 6 0 11 3
11 8 0 12 313 15 356 3 65 -17 156 -20 150 -4 -4 9 6 13 34 13 22 0 40 -4 40
-9 0 -6 24 -11 52 -13 l53 -3 12 -67 c7 -37 20 -84 31 -105 10 -21 20 -58 21
-83 1 -25 9 -58 17 -75 8 -16 19 -61 25 -100 11 -79 26 -147 28 -125 2 28 -27
224 -44 295 -13 61 -22 86 -44 129 -2 5 1 6 7 2 9 -5 12 7 12 41 0 57 11 77
42 81 13 1 126 4 252 6 222 4 230 3 246 -17 16 -19 47 -16 35 4 -4 5 6 14 20
19 29 11 112 14 102 3 -4 -3 0 -11 9 -17 9 -7 22 -36 29 -66 8 -30 23 -93 35
-140 11 -47 25 -89 30 -94 14 -14 13 -8 -20 119 -16 63 -30 125 -30 138 0 13
-5 28 -10 33 -24 24 19 32 200 34 298 4 397 -1 385 -20 -3 -4 2 -13 10 -20 8
-7 15 -19 15 -27 0 -7 7 -24 15 -36 8 -12 14 -42 14 -67 -2 -83 3 -95 12 -30
9 68 5 110 -13 121 -15 10 13 69 33 69 17 0 46 -29 44 -45 0 -5 -4 -16 -9 -24
-6 -10 -5 -12 3 -7 16 10 41 -18 41 -48 0 -14 5 -28 10 -31 10 -6 40 -67 54
-108 3 -10 10 -16 14 -13 11 7 -6 137 -20 154 -6 7 -8 16 -4 19 4 4 12 1 17
-7 8 -12 9 -9 7 10 -2 20 2 26 22 28 35 5 46 19 21 27 -30 9 -26 25 8 31 17 4
33 13 36 22 5 13 8 14 14 3 7 -10 19 -11 66 -1 32 7 71 9 87 6 16 -3 37 -1 47
6 13 8 25 8 47 -1 19 -7 21 -10 7 -7 -13 2 -26 0 -29 -5 -3 -5 -21 -9 -40 -9
-32 0 -33 -1 -22 -20 10 -17 14 -18 16 -5 4 18 18 20 25 3 4 -10 6 -10 6 0 2
26 18 10 30 -28 11 -36 14 -39 44 -37 17 1 35 7 39 12 4 6 8 0 8 -12 0 -15 6
-23 18 -23 21 -1 52 -23 52 -39 0 -7 4 -10 8 -7 16 10 132 14 138 5 3 -5 10
-6 16 -3 6 4 8 3 5 -2 -3 -6 -2 -16 4 -24 7 -12 9 -11 9 5 1 20 1 20 15 1 11
-15 15 -16 15 -5 0 8 -6 21 -12 29 -8 9 -5 8 7 -1 11 -9 27 -14 35 -12 12 4
13 3 1 -5 -9 -6 -12 -20 -8 -38 12 -63 26 -106 39 -122 20 -24 37 -89 27 -99
-14 -14 13 -64 31 -58 8 3 5 -4 -8 -15 -13 -11 -20 -25 -17 -31 6 -8 10 -7 16
2 6 10 9 11 9 2 0 -7 6 -13 14 -13 13 0 69 -100 61 -109 -8 -7 -16 5 -30 46
-9 26 -19 38 -33 39 -15 1 -18 -4 -14 -19 5 -20 6 -20 13 -1 7 17 8 17 8 1 1
-9 5 -25 10 -35 5 -9 12 -25 15 -36 4 -11 12 -16 21 -12 12 4 14 -5 11 -54 -4
-58 -3 -59 17 -48 21 11 21 11 4 -15 -14 -22 -14 -25 -2 -21 8 4 15 1 15 -6 0
-6 8 -9 18 -6 13 5 22 -1 30 -20 7 -14 10 -30 7 -35 -4 -5 -1 -9 4 -9 6 0 11
-7 11 -15 0 -8 5 -24 12 -35 15 -24 9 -31 -20 -23 -14 3 -22 13 -22 27 -1 19
-2 19 -11 4 -12 -22 -29 -23 -29 -3 0 8 5 15 11 15 5 0 8 4 5 9 -3 5 -14 7
-24 5 -22 -5 -55 59 -38 76 7 7 2 10 -16 10 -14 0 -28 7 -32 15 -3 8 -17 20
-31 25 -14 5 -25 16 -25 25 0 8 -6 15 -14 15 -8 0 -22 7 -30 16 -15 14 -16 14
-16 0 0 -9 7 -16 15 -16 8 0 15 -9 15 -21 0 -26 12 -48 61 -112 21 -29 39 -55
39 -59 0 -15 36 -44 50 -40 7 3 10 0 7 -5 -8 -13 50 -55 82 -59 14 -1 33 4 42
12 14 12 18 8 42 -44 15 -32 27 -64 27 -70 0 -7 10 -32 22 -55 11 -23 22 -58
24 -77 1 -19 2 -42 3 -51 1 -8 11 -26 23 -39 15 -16 21 -34 19 -52 -3 -33 24
-40 34 -8 7 22 20 26 30 10 3 -5 -1 -10 -9 -10 -9 0 -16 -4 -16 -10 0 -7 168
-10 485 -10 l485 0 0 29 c0 35 19 53 21 19 1 -17 3 -18 6 -5 3 11 14 17 31 17
15 0 22 4 16 8 -6 4 -14 14 -17 22 -4 11 -6 10 -6 -4 -1 -15 -4 -16 -16 -6 -8
6 -18 9 -22 7 -22 -14 -59 43 -40 62 12 12 77 15 77 3 0 -4 9 -13 19 -19 15
-10 22 -9 30 1 8 9 6 12 -11 12 -11 -1 -23 5 -25 12 -3 7 5 12 20 12 14 0 32
6 40 14 8 9 24 12 36 9 11 -3 28 0 35 7 13 10 12 17 -6 51 -14 27 -25 38 -35
35 -21 -8 -47 21 -38 42 7 15 8 15 15 -3 9 -20 9 -20 15 2 4 13 12 20 21 16 8
-3 21 0 29 7 12 10 15 9 15 -4 0 -10 -4 -14 -10 -11 -5 3 -10 2 -10 -3 0 -20
29 -20 42 0 11 16 20 19 34 14 18 -7 17 -9 -9 -31 l-28 -24 25 -7 c14 -3 30
-2 37 2 9 5 10 2 6 -9 -7 -18 8 -24 18 -8 3 6 18 6 38 0 31 -9 147 -14 177 -7
8 2 21 7 28 11 7 5 12 3 12 -7 0 -9 -4 -16 -10 -16 -6 0 -5 -10 2 -25 6 -14
19 -25 30 -25 10 0 18 -5 18 -11 0 -6 7 -18 16 -27 11 -10 13 -17 5 -20 -19
-6 -12 -21 9 -19 22 1 26 17 8 35 -8 8 -8 12 -1 12 6 0 16 -13 23 -30 7 -16
17 -30 22 -30 6 0 7 -11 4 -26 -4 -15 -3 -23 2 -20 6 3 12 -4 15 -15 3 -12 10
-18 15 -15 5 3 12 -4 15 -15 5 -19 11 -20 126 -17 67 1 121 4 121 6 0 2 -7 19
-16 38 -17 36 -34 45 -34 19 0 -13 -2 -14 -14 -3 -8 8 -11 17 -5 24 5 7 -4 15
-26 24 -42 16 -45 25 -42 112 2 64 3 66 19 48 21 -23 23 -36 6 -43 -10 -4 -10
-6 -1 -6 7 -1 22 7 33 16 28 24 34 23 40 -11 3 -17 9 -29 14 -27 16 5 26 -23
26 -77 0 -38 5 -59 19 -73 13 -15 21 -17 26 -9 4 7 3 15 -3 19 -15 9 -27 101
-13 101 6 0 13 -12 17 -27 13 -63 28 -99 44 -115 10 -9 21 -14 24 -11 10 10 7
43 -4 43 -6 0 -5 6 2 14 11 11 16 10 30 -7 12 -13 35 -22 68 -25 61 -6 65 -19
8 -25 -37 -3 -35 -4 15 -5 l58 -2 -18 25 c-13 18 -27 24 -54 25 -36 0 -36 0
-33 40 2 25 0 39 -6 35 -6 -3 -10 -1 -10 4 0 6 6 11 14 11 8 0 16 -17 21 -42
5 -34 9 -39 14 -23 8 19 8 19 19 0 6 -11 12 -14 12 -7 0 15 60 -41 60 -57 0
-7 25 -11 75 -11 60 0 75 3 75 15 0 8 -7 15 -15 15 -8 0 -15 7 -15 15 0 8 -6
15 -12 15 -20 0 -40 51 -27 67 7 7 7 13 2 13 -5 0 -14 20 -20 44 -8 36 -7 48
6 65 13 17 19 19 29 9 14 -14 16 -64 2 -73 -5 -3 -6 -15 -1 -28 4 -12 6 -28 4
-34 -3 -7 2 -13 10 -13 18 0 43 92 31 112 -6 10 -4 10 9 -1 9 -7 17 -26 17
-42 0 -19 5 -29 15 -29 8 0 15 -6 15 -14 0 -23 56 -79 71 -71 7 5 10 4 6 -2
-4 -6 0 -14 9 -17 9 -4 15 -9 12 -11 -3 -3 -18 1 -34 10 -16 8 -40 15 -53 15
-25 0 -24 -9 1 -14 26 -6 73 -27 79 -37 3 -6 27 -9 53 -7 l48 3 -31 39 c-17
21 -31 44 -30 50 0 6 5 1 11 -11 6 -13 15 -23 20 -23 4 0 17 -14 27 -31 10
-17 21 -26 25 -21 3 5 -10 27 -29 48 -35 39 -39 47 -36 72 1 7 -4 11 -11 10
-8 -2 -12 4 -10 15 2 10 -2 25 -9 33 -6 8 -9 17 -5 21 10 11 -47 43 -59 33 -7
-6 -15 -2 -23 11 -7 11 -8 19 -2 19 5 0 10 -5 10 -12 0 -6 3 -9 6 -6 3 4 1 15
-4 25 -8 15 -7 19 8 19 11 0 16 -5 12 -15 -3 -9 -1 -12 7 -7 6 4 10 15 9 24
-3 14 6 17 52 18 47 1 55 4 56 20 0 10 4 27 8 37 5 10 6 20 3 24 -7 6 -31 -15
-40 -37 -4 -8 -5 -1 -2 15 4 17 13 35 21 42 12 9 13 16 5 31 -8 15 -7 23 4 32
20 17 19 25 -7 53 -52 55 -108 70 -108 28 0 -13 -10 -16 -45 -16 -36 0 -45 4
-45 17 0 12 5 15 18 11 15 -6 15 -5 3 10 -12 16 -16 16 -31 2 -9 -8 -23 -15
-31 -15 -10 1 -8 5 6 16 17 13 18 16 5 24 -8 5 -21 10 -27 10 -7 0 -13 6 -13
14 0 17 -39 29 -41 13 -1 -7 -3 -19 -4 -27 -1 -8 -3 -21 -4 -29 -2 -19 -31 6
-31 26 0 11 -6 8 -21 -8 l-20 -24 7 25 c4 14 11 28 16 31 5 3 10 23 12 45 2
21 4 46 5 54 1 12 3 12 14 1 10 -11 10 -14 0 -18 -20 -7 -15 -31 8 -44 25 -13
54 5 31 20 -11 7 -10 9 2 14 9 4 16 14 16 22 0 9 4 14 9 10 5 -3 12 4 16 15 4
11 15 20 27 20 14 0 18 5 14 15 -3 9 3 19 14 25 22 12 108 11 116 -2 10 -16
49 -8 62 13 13 20 14 20 34 3 19 -18 21 -18 32 -2 7 10 16 15 19 11 12 -11 8
-63 -5 -63 -6 0 -8 -3 -5 -7 4 -3 16 2 27 12 25 23 39 12 17 -13 -21 -23 -21
-32 -3 -32 8 0 16 -5 18 -11 5 -16 48 7 48 25 0 8 10 11 30 8 23 -3 30 -9 30
-28 0 -12 4 -25 8 -28 4 -2 8 10 8 29 0 19 -4 31 -8 29 -4 -3 -8 2 -8 10 0 9
-4 16 -10 16 -5 0 -10 7 -10 15 0 8 -5 15 -11 15 -5 0 -7 4 -4 10 8 13 29 -8
115 -115 89 -112 106 -143 89 -159 -9 -8 -11 -7 -6 6 3 10 2 20 -3 23 -6 4
-10 1 -10 -4 0 -19 -22 -12 -27 9 -6 22 -14 25 -29 10 -7 -7 -15 -2 -24 15
-15 27 -36 35 -26 9 4 -10 1 -14 -6 -12 -7 3 -14 19 -16 37 -2 23 -7 31 -17
27 -8 -3 -21 1 -29 9 -29 29 -27 14 4 -29 20 -27 29 -49 24 -57 -6 -10 -9 -9
-13 3 -5 14 -8 15 -25 2 -19 -13 -18 -15 22 -55 23 -22 46 -38 52 -34 5 3 10
-1 10 -9 0 -9 9 -25 20 -36 21 -21 18 -24 -13 -20 -22 2 -47 -28 -39 -49 4
-11 -1 -13 -21 -7 -14 3 -29 2 -32 -4 -4 -6 8 -10 29 -10 20 0 36 -4 36 -9 0
-5 11 -23 25 -39 13 -16 23 -31 21 -33 -3 -2 8 -4 24 -4 15 0 26 3 24 7 -3 4
4 6 15 5 12 -1 17 -6 13 -15 -3 -10 0 -13 9 -10 8 2 15 18 17 34 4 35 19 54
18 23 -1 -12 5 -24 12 -26 7 -3 12 4 12 19 0 16 3 19 9 10 6 -11 12 -10 26 4
17 17 17 17 11 -2 -7 -22 41 -74 69 -74 9 0 19 -9 22 -20 3 -11 11 -20 17 -20
17 0 106 -80 106 -95 0 -13 -65 -6 -113 14 -16 6 -40 11 -53 11 -15 0 -23 4
-19 10 4 6 11 8 16 5 5 -4 9 0 9 8 0 11 -7 13 -22 9 -27 -6 -71 -49 -59 -57
22 -13 130 -31 165 -27 43 5 115 -14 133 -36 9 -11 23 -13 59 -7 32 4 44 3 39
-4 -3 -6 -24 -11 -46 -11 -21 0 -39 -4 -39 -10 0 -5 18 -10 40 -10 27 0 43 -5
46 -15 8 -19 24 -19 24 0 0 8 5 15 10 15 6 0 10 -7 10 -15 0 -10 9 -14 24 -13
21 2 24 6 20 33 -4 25 -3 27 5 9 5 -12 18 -24 28 -28 31 -13 203 -17 224 -6
13 8 25 7 40 -1 25 -13 89 -3 89 14 0 7 11 13 25 13 18 2 25 -3 25 -17 0 -10
6 -19 14 -19 9 0 12 7 9 20 -5 19 11 27 42 20 6 -1 21 -3 34 -5 13 -1 28 -10
33 -19 8 -14 55 -16 473 -16 l465 0 0 915 0 915 -28 0 c-16 0 -32 3 -36 8 -11
10 -30 9 -39 -3 -6 -7 -10 -6 -14 3 -4 10 -8 10 -19 1 -11 -9 -14 -8 -14 2 0
10 -2 11 -8 2 -8 -13 -280 -27 -300 -14 -9 5 13 33 78 97 88 87 220 236 220
250 0 3 23 32 50 64 28 32 50 62 50 68 0 5 7 15 15 22 39 33 45 67 45 274 -1
184 -2 199 -16 174 -8 -16 -19 -28 -24 -28 -6 0 -10 -8 -10 -19 0 -39 -125
-248 -228 -381 -243 -314 -489 -535 -797 -713 -327 -189 -744 -329 -1050 -352
l-70 -5 85 18 c64 14 79 20 60 25 -16 3 -11 5 16 4 25 -2 40 2 38 8 -2 5 7 10
20 10 13 0 22 -3 20 -7 -7 -12 30 -14 79 -4 26 6 47 14 47 19 0 5 -11 6 -25 3
-66 -16 -80 -18 -75 -13 3 3 48 16 100 30 52 14 104 28 115 32 19 6 19 6 2 -8
-10 -8 -39 -18 -65 -22 -26 -4 -41 -10 -35 -12 16 -6 217 45 252 63 20 11 22
14 8 14 -11 0 -15 5 -11 11 3 6 19 9 35 7 15 -3 26 -1 23 4 -3 4 1 8 10 8 8 0
16 4 18 10 2 5 12 11 23 13 11 1 26 6 33 10 6 5 17 5 22 2 6 -3 10 0 10 7 0 9
3 10 8 2 9 -14 56 1 48 15 -3 5 1 12 10 15 8 3 12 2 9 -4 -10 -16 7 -12 38 9
21 13 25 20 15 25 -7 3 -1 4 13 1 25 -4 58 18 51 34 -1 3 10 10 25 15 16 5 35
15 44 22 8 8 20 14 26 14 6 0 16 7 23 15 7 9 19 14 27 11 8 -3 12 -2 9 3 -7
11 62 53 75 46 5 -4 9 1 9 10 0 11 5 15 15 11 8 -3 15 0 16 7 0 7 18 27 41 44
22 18 38 33 36 33 -3 0 -60 -37 -129 -83 -122 -81 -321 -188 -422 -228 -29
-11 -65 -27 -82 -34 -56 -25 -219 -74 -345 -104 -194 -47 -317 -62 -543 -68
l-208 -6 7 29 c6 26 5 27 -7 12 -16 -20 -59 -14 -59 8 0 10 14 14 53 14 37 0
48 -3 37 -10 -13 -8 -12 -10 3 -10 9 0 17 -5 17 -11 0 -6 24 -9 65 -7 59 2 64
4 59 22 -5 15 -3 18 11 13 9 -4 21 -7 26 -7 5 0 9 -8 9 -17 0 -16 2 -16 11 -3
7 10 12 11 15 3 4 -7 15 -8 37 -3 18 5 46 8 62 8 69 -4 136 2 130 12 -3 6 1
10 10 10 9 0 14 -4 11 -8 -3 -5 41 0 97 10 61 12 105 25 110 34 9 16 34 19 39
4 2 -6 15 -4 32 5 15 8 35 15 42 15 8 0 14 5 14 10 0 13 -17 13 -43 -2 -12 -7
-42 -13 -67 -14 l-45 -1 37 13 c54 19 128 28 128 16 0 -5 11 -9 25 -8 31 1 32
12 3 19 -27 7 -23 12 17 21 17 4 25 3 18 -1 -7 -5 -9 -14 -3 -22 7 -12 15 -12
54 3 25 10 46 21 46 25 0 3 12 8 27 9 15 1 31 9 36 17 4 8 14 15 21 15 7 0 21
7 32 15 18 14 17 15 -11 9 -23 -4 -27 -3 -15 5 9 7 37 9 71 5 37 -4 59 -2 63
5 4 6 2 9 -7 5 -8 -3 -20 2 -27 11 -15 18 -3 19 35 5 21 -8 39 -3 103 28 132
66 408 241 442 281 3 3 23 19 45 35 22 16 109 98 193 183 107 107 159 168 172
199 11 24 23 43 28 42 30 -9 289 402 276 437 -7 17 13 56 27 52 5 -1 19 25 30
58 12 33 25 65 30 71 9 11 13 757 3 767 -3 3 -19 1 -36 -3 -24 -8 -29 -6 -24
6 3 8 0 25 -7 37 -6 12 -13 23 -13 25 -1 1 -25 -6 -53 -18 -58 -22 -106 -27
-95 -8 4 7 3 8 -4 4 -7 -4 -23 1 -37 11 -21 16 -24 26 -25 80 0 34 7 84 16
110 26 76 27 103 4 103 -21 0 -26 10 -11 25 5 6 11 19 13 30 2 11 10 20 18 21
8 1 25 2 36 2 27 2 38 27 19 45 -12 13 -11 17 8 35 27 25 118 82 130 82 5 0 4
-7 -3 -15 -7 -8 -9 -15 -5 -15 5 0 0 -10 -11 -21 -19 -22 -19 -22 9 -17 20 4
25 2 18 -5 -22 -22 -10 -27 22 -11 l32 17 -24 -27 c-26 -27 -22 -33 10 -16 17
10 19 21 18 90 -1 44 -3 80 -6 80 -6 0 -76 -39 -103 -57 -23 -16 -24 -16 -12
-1 8 10 38 33 68 53 30 20 54 39 54 44 0 4 -15 7 -34 7 -19 0 -32 -4 -30 -8 3
-4 1 -8 -5 -8 -5 0 -12 6 -14 13 -4 10 -6 10 -6 0 -1 -7 -12 -13 -25 -13 -14
0 -37 -5 -52 -10 -40 -16 -17 -32 26 -20 61 17 62 11 8 -43 -29 -28 -78 -81
-108 -117 -30 -36 -62 -73 -72 -83 -10 -10 -18 -26 -18 -36 0 -10 -7 -24 -15
-31 -8 -7 -15 -20 -15 -28 0 -41 -25 -122 -37 -118 -6 3 -14 -3 -16 -12 -3 -9
-5 6 -6 33 -1 45 13 82 38 105 31 28 26 36 -6 10 -23 -19 -45 -47 -49 -62 -3
-15 -13 -33 -22 -40 -13 -11 -14 -9 -8 17 7 28 6 29 -8 10 -8 -11 -11 -24 -6
-30 10 -13 17 -105 8 -105 -5 0 -8 12 -8 26 0 14 -4 23 -10 19 -5 -3 -10 4
-11 17 -1 23 -1 23 -8 -2 -4 -14 -3 -45 2 -69 7 -33 6 -45 -4 -52 -7 -4 6 -5
29 -2 28 4 42 2 42 -6 0 -6 -12 -12 -27 -12 -24 -2 -25 -2 -5 -6 12 -2 22 -9
22 -14 0 -17 20 -9 21 9 1 9 5 -10 10 -43 5 -33 14 -73 20 -88 9 -21 9 -31 0
-40 -14 -14 -15 -30 -1 -22 5 3 10 -3 10 -14 0 -12 5 -21 10 -21 6 0 20 -8 31
-19 52 -48 176 -89 282 -93 31 -1 57 -6 57 -11 0 -5 -35 -6 -77 -3 l-78 5 55
-12 c67 -16 47 -26 -29 -15 -52 7 -574 72 -666 83 -22 3 -76 9 -120 14 -44 5
-81 8 -83 6 -5 -4 24 -9 183 -30 305 -41 739 -105 744 -111 3 -4 -13 -4 -36 0
-27 4 -43 2 -43 -4 0 -5 7 -10 15 -10 17 0 30 -58 20 -90 -5 -15 -2 -25 6 -31
11 -6 11 -13 3 -26 -15 -25 -7 -48 12 -32 12 9 14 5 15 -22 0 -19 3 -29 5 -22
7 16 34 5 34 -14 0 -9 -6 -13 -15 -9 -12 4 -14 0 -9 -19 12 -48 5 -108 -12
-101 -6 2 -32 10 -55 17 -40 11 -359 147 -499 212 -97 45 -612 277 -664 299
-28 12 -53 24 -56 28 -3 3 -31 16 -64 29 -32 13 -84 36 -114 51 l-56 27 80 6
c593 48 988 88 996 100 11 17 10 37 -2 37 -5 0 -10 -7 -10 -15 0 -20 4 -19
-560 -70 -91 -8 -248 -22 -350 -32 l-186 -17 -145 62 c-213 89 -273 118 -294
142 -20 22 -20 22 8 42 33 24 34 36 5 40 -17 2 -23 10 -23 29 0 21 -4 25 -20
22 -15 -3 -14 -1 4 7 14 6 30 9 37 6 8 -3 11 1 7 10 -3 7 -16 14 -30 14 -20 0
-23 4 -19 23 3 12 3 16 0 10 -3 -7 -20 -12 -37 -12 -22 1 -26 3 -12 6 11 3 24
12 28 19 5 8 13 12 19 8 6 -4 8 1 6 12 -3 14 -12 18 -31 17 -15 -1 -27 0 -27
2 0 3 11 35 25 71 14 37 24 69 21 71 -3 3 -34 -70 -50 -120 -9 -29 -26 -9 -19
23 8 41 -22 41 -45 -1 -36 -66 -73 -121 -78 -116 -3 2 11 31 30 62 31 52 33
60 21 78 -12 17 -12 25 0 54 l15 34 -40 -31 c-44 -35 -77 -34 -82 3 -2 16 -9
21 -24 20 -19 -2 -26 10 -52 80 -16 45 -38 103 -48 129 -18 47 -18 51 5 230
46 362 71 573 70 598 -1 14 -14 -69 -29 -185 -39 -302 -60 -453 -68 -510 l-8
-50 -21 45 c-13 28 -22 38 -22 26 -1 -11 9 -40 21 -65 19 -40 20 -50 10 -98
-11 -53 -8 -83 8 -83 5 0 8 10 8 23 -5 82 3 82 37 -2 19 -46 37 -93 41 -105 6
-18 5 -19 -10 -7 -9 7 -16 18 -16 23 0 5 -9 21 -20 35 -30 39 -24 17 10 -34
16 -24 30 -47 30 -50 0 -3 8 -12 18 -19 16 -12 15 -13 -6 -14 -16 0 -26 7 -29
20 -8 30 -33 24 -45 -11 l-11 -32 -13 24 c-8 14 -11 38 -8 55 3 18 1 35 -5 38
-7 5 -11 -2 -11 -15 0 -14 -4 -19 -9 -14 -5 6 -73 129 -151 275 -79 146 -171
317 -205 380 -35 63 -66 125 -70 138 -3 12 -24 52 -46 88 -33 54 -143 257
-420 772 -40 74 -52 59 119 140 130 60 172 73 172 49 0 -8 9 -25 20 -38 16
-19 19 -21 20 -7 0 9 -4 28 -9 42 -7 17 -6 27 2 34 25 18 240 81 335 97 39 6
42 5 42 -15 0 -19 2 -20 15 -10 8 7 15 18 15 25 0 7 10 15 23 19 43 12 339 38
363 32 23 -6 24 -10 25 -94 1 -82 2 -84 10 -37 5 28 12 68 17 90 l8 40 79 -3
c81 -2 237 -18 288 -28 25 -5 27 -9 27 -57 1 -40 3 -48 11 -34 5 9 7 22 3 29
-4 7 -3 8 4 4 8 -5 12 2 12 18 0 14 6 26 13 26 50 -1 357 -89 380 -109 4 -4 2
-22 -4 -40 -8 -24 -8 -36 0 -44 8 -8 15 0 26 27 15 35 19 38 47 32 33 -7 262
-119 299 -146 21 -16 21 -18 4 -43 -26 -41 -7 -57 24 -20 l26 31 65 -45 c36
-24 83 -56 105 -70 22 -15 63 -45 90 -67 28 -22 52 -42 55 -44 2 -2 -1 -12 -8
-23 -7 -11 -10 -24 -7 -28 2 -5 -5 -12 -18 -16 -13 -4 -17 -8 -10 -11 7 -3 25
4 39 15 15 12 32 21 39 21 6 0 66 -56 133 -124 66 -68 123 -121 126 -118 9 9
7 -4 -6 -35 -6 -15 -10 -34 -9 -41 1 -6 -8 -16 -21 -21 -23 -9 -47 -32 -63
-61 -5 -8 14 6 43 30 29 25 52 49 52 53 0 5 4 6 9 2 5 -3 12 -1 16 5 9 15 25
12 25 -4 0 -8 7 -17 16 -20 8 -3 13 -10 10 -14 -3 -5 6 -20 20 -35 14 -15 22
-32 18 -39 -5 -7 -2 -9 9 -5 11 4 14 2 10 -9 -4 -10 0 -12 11 -8 9 3 16 1 16
-5 0 -6 -5 -11 -11 -11 -5 0 -8 -4 -4 -10 3 -5 11 -8 18 -6 7 1 9 1 4 -1 -13
-8 -7 -25 6 -20 18 7 49 -46 41 -70 -4 -13 -3 -15 4 -4 12 16 27 -3 16 -21 -4
-6 -3 -8 4 -4 6 3 13 2 17 -4 3 -5 1 -10 -4 -10 -6 0 -11 -9 -11 -19 0 -10 -7
-22 -16 -25 -8 -3 -13 -10 -10 -15 3 -5 -4 -12 -17 -16 -18 -6 -19 -8 -5 -12
9 -2 28 3 41 12 22 14 26 14 37 0 7 -8 18 -15 24 -15 6 0 17 -10 25 -22 13
-21 13 -22 -2 -9 -15 12 -17 11 -17 -3 0 -9 4 -16 8 -16 5 0 9 -6 10 -12 0 -7
2 -22 4 -33 2 -16 -15 -29 -94 -68 -58 -29 -98 -55 -98 -63 0 -25 20 -54 36
-54 19 0 91 37 96 49 4 11 128 72 128 62 0 -4 -6 -13 -12 -20 -11 -11 -10 -12
1 -6 11 6 13 4 8 -9 -4 -10 -3 -15 3 -11 6 4 10 -7 10 -24 0 -16 5 -33 10 -36
7 -4 10 112 10 341 l0 347 -70 97 c-390 543 -947 910 -1615 1064 -237 55 -282
59 -585 60 -299 1 -364 -5 -577 -50 -232 -49 -482 -135 -691 -236 -51 -25 -87
-37 -93 -31 -16 16 -159 290 -159 305 0 5 4 7 9 4 5 -3 11 1 15 9 3 8 12 15
21 15 8 0 15 5 15 11 0 6 7 9 14 6 16 -6 32 26 21 43 -3 5 -1 10 4 10 6 0 11
5 11 11 0 5 -4 7 -10 4 -15 -9 -12 6 5 24 8 9 17 34 20 56 6 36 3 44 -27 76
-36 40 -67 59 -95 59 -11 0 -40 24 -66 54 -25 29 -101 102 -169 161 -116 102
-126 113 -171 203 -35 69 -45 98 -37 106 7 7 16 7 30 -2 24 -15 40 -15 40 -1
0 5 -4 8 -9 5 -11 -7 -37 22 -50 57 -9 23 -7 31 9 47 20 20 28 70 11 70 -16 0
-7 34 59 220 75 210 91 262 86 267 -6 7 -7 5 -37 -92 -12 -38 -25 -74 -29 -80
-4 -5 -10 -21 -13 -35 -9 -45 -77 -223 -106 -279 -12 -25 -63 -24 -94 1 l-28
23 35 99 c20 54 47 117 61 140 14 22 40 65 58 94 18 29 45 61 60 71 16 10 47
36 70 57 23 22 99 91 169 153 70 62 144 131 163 154 41 48 59 101 44 129 -6
11 -9 21 -7 23 11 11 160 15 179 4 17 -9 20 -8 14 2 -6 9 2 11 33 7 31 -5 45
-2 57 12 10 11 12 20 7 24 -6 3 -10 28 -9 54 1 58 -7 72 -39 72 -13 0 -24 5
-24 10 0 6 8 10 18 10 18 0 42 18 42 31 0 4 -12 1 -27 -7 -16 -7 -40 -14 -55
-14 -20 0 -28 -5 -29 -17 0 -11 -3 -13 -6 -5 -2 6 -14 12 -26 12 -34 1 -1 16
52 25 27 4 39 10 31 15 -9 6 -8 9 6 13 29 9 126 4 112 -5 -9 -5 -8 -8 5 -8 18
0 21 8 9 26 -9 14 -146 29 -137 14 4 -6 -4 -10 -20 -10 -15 0 -24 4 -20 10 4
6 10 8 14 5 5 -2 6 7 3 21 -3 17 -9 23 -19 20 -8 -3 -21 -6 -29 -6 -8 0 -11
-6 -8 -15 4 -9 0 -15 -10 -15 -9 0 -16 3 -16 8 1 20 20 32 68 42 29 7 51 17
49 23 -1 8 16 12 50 12 52 0 70 -9 36 -18 -14 -4 -15 -5 -2 -6 8 0 23 5 32 12
34 25 3 36 -123 44 -120 8 -123 9 -105 26 10 11 27 17 40 15 11 -3 27 1 33 9
15 15 66 18 57 3 -10 -16 0 -12 24 10 17 14 31 17 53 13 26 -5 29 -3 26 13 -3
17 -14 19 -111 22 -60 1 -107 7 -107 12 0 6 11 10 25 10 15 0 40 7 57 16 17 9
50 22 72 29 26 8 33 13 20 14 -12 1 -42 -8 -67 -19 -32 -14 -61 -19 -101 -17
-31 2 -59 0 -62 -5 -3 -4 -14 -8 -26 -8 -16 0 -19 -5 -15 -21 3 -12 3 -18 0
-15 -4 3 -12 1 -18 -4 -9 -7 -22 -7 -41 0 -28 10 -28 9 -9 -6 20 -16 20 -16
-3 -11 -12 3 -20 2 -17 -3 6 -9 -25 -23 -33 -15 -3 3 -1 5 4 5 5 0 10 15 10
33 1 17 0 25 -3 17 -5 -19 -81 -52 -89 -39 -4 6 -10 6 -18 0 -7 -6 -15 -8 -19
-5 -3 3 -13 -6 -22 -20 -10 -14 -23 -26 -31 -26 -7 0 -33 -20 -58 -45 -46 -45
-112 -85 -141 -85 -8 0 -15 -4 -15 -10 0 -5 -9 -10 -19 -10 -11 0 -23 -5 -27
-12 -5 -8 3 -9 30 -5 34 5 50 12 119 49 23 13 88 65 141 113 16 15 79 35 107
35 19 0 13 -6 -26 -25 -66 -32 -18 -23 85 16 62 24 90 29 163 29 48 0 87 -4
87 -8 0 -5 -55 -18 -121 -29 -67 -12 -126 -26 -131 -31 -18 -18 29 -32 144
-43 62 -6 114 -12 116 -14 2 -1 -34 -8 -80 -14 -120 -17 -179 -32 -175 -44 4
-13 89 -37 134 -37 36 0 63 -9 63 -20 0 -4 -36 -11 -80 -14 -77 -7 -122 -26
-61 -26 17 0 31 -4 31 -10 0 -14 -27 -12 -59 5 -27 13 -41 11 -41 -6 0 -4 23
-15 51 -24 37 -12 49 -21 45 -32 -3 -8 -6 -19 -6 -24 0 -11 -140 -12 -158 0
-7 4 -12 14 -10 22 5 22 -42 24 -48 2 -4 -15 -14 -18 -52 -16 -39 2 -33 -1 33
-15 78 -16 79 -17 40 -23 -22 -3 -35 -7 -30 -8 14 -1 19 -61 5 -61 -5 0 -10
-4 -10 -8 0 -5 28 -7 63 -6 l62 3 -70 -14 c-38 -7 -83 -14 -100 -15 -18 0 -39
-10 -54 -25 -21 -23 -42 -28 -121 -27 -3 0 -16 3 -29 7 -14 4 -21 3 -18 -3 4
-5 -24 -22 -60 -38 -184 -78 -403 -226 -486 -329 -50 -63 -87 -156 -87 -221 0
-47 36 -150 69 -199 15 -22 31 -46 35 -54 7 -11 -81 -12 -570 -6 -319 4 -772
9 -1009 11 -564 5 -967 13 -982 19 -7 2 -15 0 -18 -6 -4 -5 -11 -6 -17 -3 -17
10 -138 11 -138 0 0 -4 -7 -3 -16 5 -13 10 -17 10 -25 -2 -6 -9 -11 -10 -16
-3 -5 6 -59 11 -138 12 -185 2 -734 12 -900 17 -77 3 -147 4 -155 4 -8 0 -44
1 -80 1 -96 2 -137 37 -90 77 11 10 20 25 20 35 0 10 5 18 10 18 6 0 10 5 10
10 0 6 -6 10 -14 10 -20 0 -23 16 -20 100 2 62 15 111 73 285 39 116 71 218
71 228 0 18 -98 115 -218 215 -80 67 -120 81 -176 62 -62 -20 -84 -45 -91
-104 -6 -43 -14 -60 -40 -85 -19 -17 -36 -28 -39 -23 -2 4 -10 73 -16 152 -25
326 -70 449 -191 526 -44 27 -120 32 -179 10z m5765 -696 c-3 -5 -20 -10 -36
-10 -17 0 -28 -4 -25 -8 3 -5 -2 -20 -12 -33 -9 -13 -15 -31 -14 -41 2 -9 -2
-19 -8 -23 -5 -3 -10 -14 -10 -23 1 -12 6 -8 16 11 16 30 24 34 24 13 0 -7
-10 -24 -23 -38 -13 -14 -30 -40 -37 -59 -15 -36 -87 -118 -131 -150 l-27 -19
47 141 c45 132 50 142 80 155 25 11 31 18 26 33 -4 14 0 21 15 26 11 3 20 13
20 21 0 10 13 14 51 14 31 0 48 -4 44 -10z m-257 -245 c-50 -160 -51 -160
-115 -228 -123 -131 -192 -240 -223 -352 -16 -55 -19 -60 -46 -61 -35 -1 -91
54 -144 142 -45 75 -54 168 -22 230 51 98 205 219 415 324 104 53 149 81 157
98 7 15 15 21 20 16 6 -6 -11 -72 -42 -169z m-3428 -822 c294 -4 645 -7 780
-8 397 -2 2063 -34 2087 -40 16 -4 24 -15 29 -39 7 -40 -3 -79 -19 -73 -7 2
-20 0 -30 -5 -17 -9 -18 -11 -2 -28 14 -15 22 -17 45 -8 29 10 33 16 45 76 4
18 13 46 22 62 12 25 18 28 33 20 10 -6 27 -10 38 -10 10 0 24 -11 30 -25 9
-20 6 -41 -22 -122 -40 -116 -142 -415 -219 -638 -31 -88 -83 -239 -117 -335
-34 -96 -81 -231 -104 -300 -24 -69 -58 -165 -76 -215 -17 -49 -56 -160 -85
-245 -29 -85 -85 -245 -123 -355 -393 -1124 -412 -1175 -412 -1122 0 21 -19
22 -34 1 -12 -16 -66 -11 -66 7 0 14 -20 11 -36 -5 -10 -10 -23 -12 -42 -7
-15 4 -38 4 -52 0 -14 -4 -19 -7 -11 -8 8 -1 12 -3 9 -6 -3 -3 -22 2 -43 10
-36 16 -38 15 -60 -5 -23 -22 -61 -21 -76 2 -4 6 -13 -4 -20 -21 -14 -31 -32
-38 -58 -22 -18 11 -41 3 -41 -14 0 -7 -6 -18 -13 -24 -11 -8 -18 -6 -32 9
-19 21 -35 18 -35 -6 0 -14 61 -120 128 -224 35 -53 61 -87 50 -65 -16 32
-124 213 -135 226 -15 18 -17 29 -5 29 4 0 32 -40 62 -89 30 -50 56 -88 59
-86 2 3 -10 27 -27 55 l-31 50 38 19 c79 41 251 70 332 56 l43 -7 -30 -13 -29
-13 53 -7 c29 -4 52 -13 52 -20 0 -23 -32 -105 -41 -105 -5 0 -27 11 -48 25
-34 23 -40 24 -63 12 l-26 -13 43 -23 c83 -44 84 -47 46 -164 -34 -105 -70
-187 -81 -187 -11 0 -34 30 -100 137 -105 167 -79 110 39 -87 91 -151 116
-186 148 -204 43 -24 109 -115 119 -162 7 -36 -15 -88 -41 -98 -43 -16 -102 1
-124 36 -37 59 -53 95 -57 126 -6 43 -43 113 -152 287 -49 77 -100 160 -114
185 -46 83 -121 205 -136 222 -13 16 -13 18 2 24 9 3 16 11 16 16 0 6 -6 5
-15 -2 -12 -10 -22 -9 -49 4 -19 9 -47 16 -64 16 -30 0 -52 25 -29 33 7 2 -6
7 -28 11 -22 4 -64 13 -93 20 -52 13 -54 13 -48 -7 8 -31 -9 -8 -39 50 -14 29
-31 50 -38 48 -7 -2 -25 -6 -41 -10 l-28 -6 32 29 c31 29 32 30 16 60 -16 31
-16 31 20 66 43 41 50 26 -76 166 -141 156 -718 799 -799 890 -42 47 -92 103
-112 125 -20 22 -99 110 -175 196 -252 282 -679 755 -1081 1199 -13 14 -23 30
-23 36 0 6 -31 44 -70 85 -47 51 -69 82 -70 100 0 14 13 65 30 113 20 62 26
88 17 91 -7 2 -41 6 -76 8 -35 3 -68 10 -74 16 -8 8 -2 9 23 4 67 -15 383 -7
604 15 167 17 222 19 233 10 10 -8 17 -8 26 1 17 17 12 144 -7 182 l-16 31
118 -6 c64 -3 358 -9 652 -13z m3393 -435 c9 -18 58 -109 108 -203 50 -93 129
-245 174 -337 46 -91 98 -192 115 -223 17 -31 30 -58 28 -59 -2 -2 -32 -22
-68 -46 -637 -422 -1053 -989 -1244 -1697 -30 -112 -46 -191 -82 -411 -6 -38
-26 -49 -63 -35 -16 6 -37 6 -54 0 -16 -5 -38 -5 -54 0 -18 6 -38 6 -55 -1
-19 -7 -31 -7 -38 0 -7 7 45 168 164 510 166 475 571 1637 716 2054 121 349
148 424 180 513 l33 89 61 -61 c34 -33 69 -75 79 -93z m-4950 -378 c25 -27 50
-50 55 -50 5 0 39 -35 77 -77 37 -43 107 -121 155 -173 98 -107 260 -286 366
-405 39 -44 132 -147 206 -230 239 -266 340 -378 503 -561 191 -213 1034
-1152 1086 -1209 69 -75 90 -105 84 -115 -3 -5 0 -10 7 -10 22 -1 47 -26 63
-63 13 -32 13 -37 -2 -52 -9 -9 -24 -14 -35 -12 -15 4 -18 1 -13 -13 3 -10 3
-30 -1 -44 -5 -20 -12 -26 -35 -26 -30 0 -38 -17 -18 -37 17 -17 1 -52 -27
-59 -27 -7 -32 -22 -9 -30 18 -7 12 -39 -13 -66 -11 -14 -12 -21 -3 -32 15
-18 -1 -61 -26 -70 -17 -7 -17 -9 3 -25 24 -19 23 -68 -2 -78 -20 -7 -17 -21
6 -28 24 -8 25 -20 5 -59 -9 -16 -14 -29 -13 -30 29 -11 43 -27 40 -47 -2 -13
-8 -29 -13 -36 -7 -7 -6 -14 1 -18 5 -3 10 -1 10 5 0 7 7 4 16 -5 12 -12 15
-27 11 -56 -4 -34 -2 -39 14 -39 25 0 48 -45 31 -62 -17 -17 -15 -24 9 -25 34
-3 51 -24 45 -55 -5 -24 -2 -28 18 -28 31 0 57 -30 49 -58 -4 -18 -1 -22 16
-22 35 0 63 -19 56 -39 -4 -14 3 -19 37 -27 33 -7 44 -14 46 -31 3 -19 10 -23
41 -23 39 0 62 -14 55 -34 -3 -7 9 -11 31 -12 64 -3 67 -4 62 -18 -5 -11 5
-14 45 -13 30 0 53 -4 55 -10 3 -7 22 -10 54 -7 31 3 49 1 49 -6 0 -6 8 -9 18
-7 49 14 94 18 87 8 -3 -6 -1 -11 4 -11 6 0 11 4 11 9 0 10 121 32 178 33 12
0 22 4 22 8 0 4 19 11 43 14 137 23 140 23 157 6 33 -33 70 -94 60 -100 -5 -3
2 -20 16 -38 14 -18 30 -30 35 -27 19 12 30 -7 12 -20 -17 -12 -12 -19 59 -90
43 -42 77 -80 77 -83 -1 -4 -1 -20 0 -37 2 -28 3 -29 13 -9 13 27 -11 84 -56
132 -16 17 -25 32 -20 32 6 0 14 -4 20 -9 5 -6 13 -1 21 15 9 19 8 24 -2 24
-8 0 -17 -5 -20 -10 -7 -12 -25 -4 -25 11 0 6 18 9 43 7 36 -3 44 -8 56 -35
12 -28 18 -31 45 -26 l32 5 2 -74 c3 -84 9 -111 23 -102 5 3 7 13 5 22 -3 10
-8 48 -10 86 -3 42 -10 72 -19 80 -8 6 -23 29 -33 51 -23 52 -21 50 -39 31
-27 -26 -98 -21 -156 13 -38 22 -57 41 -75 77 -14 27 -31 60 -39 74 -14 23
-13 25 8 28 12 2 26 8 32 13 5 5 24 9 42 9 19 0 47 7 64 16 16 8 39 12 50 9
11 -4 30 0 44 9 13 9 39 16 58 16 18 0 38 5 44 11 6 6 28 11 50 11 21 0 44 5
51 10 15 13 38 -4 48 -35 10 -33 110 -211 172 -307 78 -121 203 -277 325 -405
l104 -110 -307 -3 c-262 -2 -309 -5 -314 -17 -4 -10 2 -15 17 -16 17 -1 18 -2
5 -6 -10 -2 -18 -12 -18 -21 0 -15 -12 -17 -97 -15 -140 3 -143 3 -108 14 17
5 37 7 45 4 8 -2 22 0 30 5 11 7 -4 10 -50 10 -55 1 -61 3 -40 12 14 5 52 8
85 5 33 -2 71 -1 85 3 21 7 18 8 -20 10 -152 8 -550 7 -550 -2 0 -5 8 -8 18
-7 9 1 76 1 148 0 l132 -1 6 -26 c9 -34 -7 -52 -29 -34 -13 11 -15 8 -15 -23
0 -34 1 -35 42 -35 23 -1 56 5 73 13 16 8 46 16 65 18 19 3 10 3 -20 1 -30 -2
-66 -6 -80 -9 -14 -3 -10 1 10 9 40 17 240 22 205 5 -14 -6 -1 -7 39 -3 43 4
61 2 67 -8 7 -10 9 -10 9 0 0 9 5 10 19 2 25 -13 41 -13 21 0 -13 8 -12 10 3
10 26 0 93 38 76 44 -41 13 -43 14 -22 15 36 1 36 19 1 24 -18 2 9 5 60 5 50
1 92 -1 92 -6 0 -4 -20 -6 -45 -4 -26 3 -45 0 -45 -6 0 -6 20 -10 44 -10 25 0
52 -5 62 -10 9 -5 25 -7 35 -5 14 4 19 0 19 -14 0 -15 7 -19 36 -19 19 0 39
-6 44 -13 4 -8 13 -10 19 -7 6 4 9 12 6 17 -4 5 -1 9 5 9 7 0 10 -7 7 -15 -5
-11 7 -15 56 -18 l62 -3 -80 -4 -80 -4 85 -5 c76 -5 86 -4 93 13 4 11 13 16
22 12 8 -3 15 -1 15 4 0 6 9 10 21 10 14 0 19 -5 16 -14 -4 -10 -1 -13 9 -9
21 8 17 17 -17 37 -26 15 -33 16 -41 5 -6 -10 -7 -7 -3 9 4 13 1 29 -5 37 -20
24 -3 17 27 -11 15 -15 44 -38 63 -53 19 -14 40 -31 45 -37 13 -15 174 -132
189 -137 6 -2 8 -7 5 -11 -3 -3 -23 7 -45 24 -21 16 -44 30 -51 30 -7 0 -17 8
-22 18 -9 15 -10 15 -11 -5 0 -13 6 -23 13 -23 8 0 8 -3 1 -8 -6 -4 -13 -15
-17 -24 -5 -16 -52 -17 -624 -18 -340 0 -688 -3 -773 -5 -85 -2 -735 -7 -1445
-10 -709 -3 -1509 -7 -1777 -9 l-487 -4 111 85 c141 107 158 122 299 264 473
476 752 1064 819 1723 19 177 8 547 -20 701 -80 447 -239 833 -485 1174 -33
45 -67 93 -75 106 -81 121 -394 427 -561 548 -121 87 -154 109 -217 147 -39
24 -72 46 -72 50 0 17 35 107 57 146 16 29 32 45 46 46 12 0 29 1 37 2 27 2
22 36 -9 63 -20 18 -31 37 -31 54 0 23 5 28 34 33 36 7 50 31 34 60 -11 19 5
46 27 46 6 0 33 -22 58 -50z m7238 -289 c74 -11 146 -25 160 -31 l24 -10 -26
4 c-557 108 -1133 37 -1626 -199 -73 -35 -133 -59 -133 -54 0 6 51 34 113 64
262 125 524 200 852 244 117 16 481 6 636 -18z m-1726 -370 c-6 -4 -52 -37
-104 -72 -51 -35 -103 -71 -115 -79 -62 -43 -272 -229 -346 -306 -182 -191
-343 -416 -453 -638 -43 -87 -113 -252 -127 -301 -5 -16 -25 -84 -44 -150 -21
-71 -33 -130 -29 -144 4 -17 2 -22 -6 -17 -7 5 -11 -2 -12 -21 0 -15 -2 -46
-5 -68 -3 -31 -2 -37 7 -25 9 12 10 11 4 -5 -3 -11 -9 -33 -12 -48 -4 -21 -8
-25 -15 -15 -6 8 -7 1 -3 -21 5 -21 3 -31 -3 -27 -10 6 -28 -231 -18 -241 3
-4 6 5 7 18 0 22 1 22 8 4 5 -11 6 -37 3 -57 -3 -29 -1 -39 12 -44 9 -3 16
-14 16 -23 0 -14 -2 -14 -10 -1 -7 11 -10 6 -9 -20 0 -29 2 -31 9 -15 7 15 9
8 11 -30 6 -149 5 -157 -16 -169 -11 -6 -23 -15 -26 -19 -21 -29 -33 256 -19
448 19 270 58 462 144 705 60 170 88 234 158 364 172 314 393 580 672 807 105
85 297 218 316 219 8 0 10 -3 5 -9z m165 -368 c175 -346 509 -1004 630 -1240
48 -95 86 -173 84 -173 -3 0 -39 17 -82 39 -56 28 -84 49 -102 77 -61 93 -267
392 -354 515 -52 74 -104 148 -116 164 -11 17 -44 64 -73 105 -49 70 -111 158
-245 355 -30 44 -64 92 -76 106 -23 29 -77 115 -88 140 -5 12 11 29 60 65 88
65 195 134 207 134 6 0 75 -129 155 -287z m-314 -98 c42 -60 113 -164 159
-230 46 -66 119 -172 162 -235 43 -63 114 -164 157 -225 68 -94 327 -475 350
-513 8 -14 -219 96 -276 133 -21 14 -42 25 -48 25 -12 0 -153 68 -689 331
-222 110 -405 198 -407 196 -2 -1 258 -133 577 -292 319 -160 587 -298 596
-307 9 -10 19 -15 24 -12 4 2 66 -25 136 -60 117 -60 131 -70 166 -120 20 -30
37 -58 37 -62 0 -4 -16 -4 -35 -1 -19 3 -35 2 -35 -4 0 -5 5 -9 11 -9 5 0 8
-4 5 -9 -9 -13 21 -33 41 -28 15 3 14 6 -7 15 -14 6 -19 11 -12 11 7 1 26 -6
42 -14 17 -9 32 -15 35 -15 3 0 6 -3 6 -7 1 -5 10 -19 20 -32 26 -33 24 -41
-12 -36 l-30 4 21 -36 c21 -36 15 -63 -15 -63 -8 0 -15 -5 -17 -11 -4 -13
-169 -57 -243 -65 -37 -4 -85 3 -180 26 -71 17 -186 45 -255 61 -218 52 -208
49 -180 64 15 8 34 10 50 5 15 -4 34 -4 43 1 9 5 33 10 54 10 21 0 63 2 93 5
30 3 80 8 110 11 30 3 71 6 90 8 19 1 51 6 70 10 39 9 95 15 154 15 22 0 45 5
53 11 7 7 28 9 48 6 41 -7 44 1 13 30 -19 17 -33 20 -78 17 -30 -2 -73 -5 -95
-7 -22 -1 -45 -5 -52 -10 -6 -4 -31 -7 -55 -7 -86 0 -133 -6 -155 -18 -15 -8
-29 -9 -48 -2 -18 7 -33 7 -46 0 -10 -6 -34 -10 -51 -10 -18 0 -58 -3 -88 -6
-30 -3 -82 -8 -115 -11 -33 -2 -82 -6 -110 -9 -27 -2 -68 -6 -90 -8 -22 -2
-60 2 -85 9 -58 17 -120 27 -120 21 0 -3 27 -10 60 -17 33 -6 60 -14 60 -18 0
-3 -39 -6 -87 -5 -49 1 -92 -2 -98 -5 -8 -5 -150 -12 -232 -11 -52 1 -76 0
-256 -4 -157 -3 -189 -2 -194 10 -3 8 0 58 8 110 l13 96 53 -4 c29 -2 53 -2
53 -1 0 1 -20 12 -45 23 -61 28 -62 25 27 304 l32 98 43 -6 c51 -7 59 10 13
27 -16 6 -30 18 -30 26 0 16 142 304 165 334 10 14 18 16 32 9 10 -5 32 -12
48 -16 l30 -8 -37 29 c-21 15 -37 33 -38 39 0 16 172 253 209 288 l31 30 24
-23 c32 -30 46 -8 15 25 l-23 24 45 46 c76 79 162 161 203 193 l39 31 34 -32
c19 -18 68 -82 109 -143z m-6128 149 c8 -15 -11 -89 -58 -224 -28 -79 -28 -79
-49 -73 -12 3 -21 10 -21 16 0 19 82 272 92 285 14 16 25 15 36 -4z m6834
-604 c25 -47 141 -260 257 -473 116 -214 211 -392 211 -396 0 -5 -7 -11 -15
-14 -10 -5 -37 37 -98 156 -120 230 -427 839 -427 846 0 10 26 -33 72 -119z
m-640 -1086 c5 -3 109 -30 231 -59 154 -37 215 -56 200 -61 -15 -4 -23 -14
-23 -29 0 -13 -6 -25 -12 -28 -7 -2 -89 -19 -183 -38 -142 -28 -163 -35 -130
-39 23 -3 69 2 110 12 38 10 74 17 80 15 5 -2 -16 -10 -48 -16 -32 -7 -57 -15
-54 -17 2 -2 52 -9 112 -15 l108 -11 204 47 204 48 76 -18 c75 -18 75 -18 132
5 31 13 63 29 73 37 9 8 18 10 22 5 6 -10 -35 -42 -54 -42 -25 0 -140 -54
-140 -66 0 -7 -14 -15 -32 -18 -18 -3 -73 -12 -122 -20 -58 -9 -99 -11 -120
-5 -17 5 -51 8 -76 8 l-45 -2 60 -11 60 -12 -40 -6 c-22 -4 -220 -34 -440 -67
-220 -34 -486 -75 -591 -91 -106 -17 -196 -30 -200 -29 -18 2 97 30 341 84
138 31 318 71 400 90 83 19 170 37 195 41 39 7 42 8 20 14 -14 4 -66 10 -116
14 -96 8 -76 12 -404 -79 -193 -54 -832 -216 -865 -220 -63 -8 -36 0 215 64
362 93 756 196 850 222 l85 24 -59 6 c-33 4 -69 3 -80 -2 -12 -4 -84 -20 -161
-34 -77 -15 -310 -60 -519 -101 -208 -42 -382 -72 -387 -67 -4 4 -11 72 -15
151 l-7 142 37 0 c20 0 36 5 36 11 0 7 -11 8 -30 4 -29 -6 -30 -5 -31 32 -2
49 2 87 8 93 5 5 117 12 163 10 14 -1 35 -1 48 -1 12 1 32 1 45 2 12 0 33 0
47 0 14 -1 77 1 140 4 63 3 122 6 130 6 8 0 24 0 35 0 11 -1 54 1 95 4 92 6
90 6 115 6 68 0 135 6 140 11 8 8 153 1 167 -8z m-1651 -24 c13 -8 25 -7 40 0
15 9 28 9 48 0 19 -7 36 -8 53 -1 49 18 54 2 50 -162 -3 -132 -5 -148 -20
-145 -17 4 -18 11 -6 59 6 25 4 26 -32 25 -42 -1 -48 10 -30 52 12 28 4 37
-22 23 -28 -15 -52 -4 -52 25 0 19 -8 25 -40 34 -25 7 -40 17 -40 26 0 20 -22
42 -38 36 -22 -7 -13 18 11 28 30 12 55 12 78 0z m-38 -222 c81 -82 139 -170
123 -185 -5 -4 -11 -2 -13 5 -3 6 -9 12 -14 12 -5 0 -1 -17 10 -37 10 -21 22
-53 26 -70 9 -45 -16 -44 -44 1 -12 19 -29 40 -38 47 -10 8 -14 9 -10 2 16
-26 -14 -22 -57 9 -25 17 -48 29 -51 26 -3 -3 12 -17 34 -31 47 -31 98 -95 85
-106 -9 -8 -192 -54 -266 -66 -30 -6 -37 -4 -40 12 -4 15 32 137 61 208 5 11
14 38 21 60 25 82 73 195 82 195 5 0 46 -37 91 -82z m-5327 52 c14 -14 -16
-138 -36 -150 -26 -17 -79 -11 -100 10 -23 23 -26 68 -7 93 6 10 35 26 62 36
60 23 68 24 81 11z m8889 -65 c88 -37 164 -71 168 -75 5 -4 -22 -10 -58 -13
l-67 -5 -110 75 c-60 41 -111 73 -114 71 -2 -3 42 -36 98 -74 116 -77 115 -79
-23 -72 -60 3 -83 1 -76 -6 5 -6 44 -12 86 -14 163 -6 163 -6 640 -343 43 -31
97 -68 449 -314 333 -232 495 -348 534 -380 l29 -25 -32 -47 c-45 -66 -91
-125 -111 -144 -10 -9 -18 -20 -18 -25 0 -5 -18 -29 -38 -53 l-38 -44 -50 28
c-27 15 -58 35 -69 45 -22 20 -226 173 -601 450 -130 96 -320 237 -423 313
-102 77 -193 143 -202 147 -8 5 -50 93 -94 197 -43 103 -86 206 -95 228 -17
38 -17 40 1 64 10 13 19 33 19 45 0 22 18 48 29 42 3 -2 78 -34 166 -71z
m-4561 -117 c32 -36 36 -48 37 -97 0 -31 6 -74 13 -96 13 -40 13 -40 9 25 -2
36 -5 75 -7 88 -2 12 -2 22 0 22 7 0 213 -234 209 -238 -8 -9 -138 -1 -156 9
-10 5 -21 18 -24 30 -4 11 -9 18 -12 15 -3 -3 5 -21 17 -40 13 -22 19 -43 15
-56 -4 -11 -2 -20 4 -20 6 0 11 9 11 20 0 11 4 20 10 20 5 0 6 -7 3 -17 -4
-11 -3 -14 5 -9 7 4 12 2 12 -3 0 -6 -4 -11 -8 -11 -4 0 -8 -9 -8 -19 0 -17 8
-19 58 -18 32 1 58 6 58 11 0 4 13 6 30 3 23 -5 28 -3 23 8 -10 29 6 14 37
-32 18 -26 36 -57 41 -70 5 -13 13 -23 18 -23 5 0 12 -14 16 -31 8 -36 57 -94
97 -115 15 -8 44 -15 64 -16 24 -1 38 -8 46 -21 6 -11 13 -15 17 -10 12 19 74
51 87 46 10 -4 12 0 8 11 -11 29 27 86 72 106 37 16 253 60 295 60 12 0 15 -7
13 -27 l-4 -28 14 29 c13 28 35 44 64 45 26 2 -8 -131 -59 -232 -34 -66 -92
-139 -160 -200 -67 -61 -84 -68 -94 -38 -12 38 -68 38 -80 0 -4 -11 0 -30 9
-43 15 -24 14 -24 -37 -44 -127 -50 -275 -64 -400 -38 -99 20 -230 80 -225
103 4 22 24 28 31 9 4 -11 1 -13 -11 -10 -16 5 -16 5 0 -5 23 -16 50 -3 46 23
-4 30 -63 36 -73 7 -10 -31 -25 -26 -89 31 -101 90 -178 213 -212 339 -32 122
-16 322 36 444 25 59 79 145 90 145 5 0 25 -19 44 -42z m4869 -17 c45 -22 110
-51 143 -65 34 -14 104 -45 155 -69 121 -56 221 -101 694 -316 215 -98 389
-182 388 -187 -1 -5 10 -10 24 -11 35 -2 47 -16 34 -39 -9 -17 -46 -92 -128
-257 -13 -26 -30 -50 -37 -53 -19 -7 -72 22 -182 98 -50 35 -133 92 -185 128
-52 36 -123 86 -159 111 -36 25 -177 123 -315 219 -137 96 -306 213 -375 260
-69 48 -152 106 -185 129 l-60 43 75 -5 75 -5 -65 10 c-36 5 -83 14 -104 20
-56 14 -28 28 57 28 58 0 79 -5 150 -39z m-1153 15 c19 -24 -9 -64 -65 -94
-61 -32 -59 -31 -54 -37 3 -2 50 19 105 48 l100 52 -1 -30 c-2 -37 -11 -55
-30 -55 -8 0 -21 -13 -30 -30 -9 -16 -20 -30 -26 -30 -6 0 -1 12 10 27 27 33
18 43 -12 15 -13 -12 -35 -22 -49 -22 -14 0 -33 -9 -43 -20 -10 -11 -30 -20
-45 -20 -15 0 -39 -9 -53 -20 -14 -11 -36 -20 -50 -20 -13 0 -30 -7 -37 -15
-17 -21 -24 -12 -11 14 9 16 9 19 -2 15 -8 -3 -19 -16 -25 -30 -7 -13 -20 -24
-30 -24 -11 0 -27 -9 -37 -20 -10 -11 -29 -20 -42 -20 -14 0 -37 -9 -51 -21
-16 -12 -34 -18 -47 -15 -14 4 -30 -2 -43 -14 -12 -11 -27 -20 -35 -20 -7 0
-43 -15 -79 -33 -48 -24 -64 -29 -60 -18 3 9 -6 4 -21 -11 -20 -22 -32 -27
-54 -22 -20 4 -33 1 -42 -10 -7 -8 -29 -18 -50 -22 -20 -4 -45 -13 -56 -20
-11 -8 -31 -14 -45 -14 -15 0 -35 -7 -46 -15 -10 -8 -32 -15 -48 -15 -16 0
-37 -7 -46 -15 -10 -9 -32 -17 -50 -20 -18 -2 -40 -11 -49 -19 -10 -9 -34 -16
-53 -16 -20 0 -41 -7 -48 -15 -7 -8 -27 -15 -44 -15 -17 0 -40 -7 -50 -15 -11
-8 -34 -15 -52 -15 -17 0 -37 -7 -44 -15 -7 -8 -29 -15 -50 -15 -21 0 -43 -7
-50 -15 -7 -8 -29 -15 -50 -15 -21 0 -43 -7 -50 -15 -7 -8 -27 -15 -44 -15
-18 0 -41 -7 -52 -15 -10 -8 -36 -15 -56 -15 -20 0 -40 -4 -43 -10 -12 -20
-24 -9 -46 38 -43 97 -60 155 -47 164 7 4 18 8 24 8 6 0 19 9 29 20 16 18 16
20 2 20 -9 0 -28 -5 -43 -12 -22 -10 -28 -10 -38 4 -15 20 -60 197 -52 205 11
11 393 84 1041 198 241 42 357 64 775 144 85 16 156 28 158 26 2 -2 -8 -21
-24 -42 l-27 -38 31 32 c18 18 32 37 32 42 0 10 17 16 70 24 14 3 28 5 31 6 4
0 12 -6 19 -13z m631 -15 c10 -10 142 -322 138 -325 -2 -2 -58 39 -124 91
-174 137 -167 130 -155 153 5 10 10 29 10 42 0 18 2 20 10 8 8 -12 10 -9 10
12 0 17 6 28 18 31 20 5 84 -3 93 -12z m-4498 -53 c-40 -83 -55 -145 -60 -252
-13 -264 108 -498 330 -639 221 -141 525 -142 756 -4 79 48 175 136 222 203
58 85 129 243 129 291 0 12 4 24 9 27 5 4 7 -3 4 -13 -3 -10 0 -28 6 -39 8
-15 6 -23 -9 -37 -12 -11 -19 -29 -18 -46 1 -16 -6 -37 -17 -49 -16 -18 -17
-25 -8 -51 10 -26 9 -31 -5 -35 -35 -11 -47 -22 -50 -44 -2 -13 -15 -32 -28
-43 -16 -12 -24 -29 -24 -49 0 -25 -3 -29 -20 -25 -19 5 -65 -25 -54 -36 4 -3
-10 -13 -30 -21 -27 -11 -38 -23 -42 -46 -7 -32 -30 -41 -36 -13 -2 13 -10 10
-37 -18 -24 -24 -44 -34 -65 -34 -24 0 -34 -6 -44 -28 -13 -27 -15 -28 -33
-11 -19 17 -21 16 -49 -4 -17 -13 -31 -18 -35 -12 -10 17 -48 11 -71 -11 -21
-19 -24 -20 -47 -5 -20 14 -29 15 -50 5 -21 -9 -30 -9 -42 1 -10 8 -29 10 -55
6 -33 -5 -40 -3 -40 10 0 14 -8 16 -45 12 -39 -5 -46 -2 -60 19 -13 19 -22 23
-44 18 -23 -5 -31 -1 -45 20 -10 16 -26 25 -41 25 -18 0 -29 8 -37 26 -7 15
-23 27 -39 31 -19 3 -31 14 -37 33 -6 17 -20 30 -36 34 -18 4 -26 13 -26 29 0
29 -11 44 -35 48 -14 3 -21 14 -23 34 -2 17 -13 37 -24 46 -11 9 -21 30 -23
49 -2 18 -10 37 -19 42 -10 6 -16 22 -16 46 0 21 -5 43 -10 48 -12 12 -15 203
-4 273 3 24 12 54 19 68 8 14 11 32 8 39 -3 7 5 25 16 40 12 15 21 36 21 48 0
12 5 27 12 34 25 25 25 10 1 -40z m4226 -7 l-23 -18 22 -7 c12 -4 22 -10 22
-14 0 -4 16 -24 34 -44 l35 -38 -47 -140 c-26 -77 -49 -140 -52 -140 -3 0 -18
66 -34 148 -15 81 -30 155 -32 165 -4 11 0 17 11 17 16 0 35 37 28 56 -2 6 6
16 19 22 35 17 43 14 17 -7z m-60 -36 c-29 -16 -43 -41 -32 -58 4 -6 21 -88
39 -182 l32 -170 -74 -225 c-41 -124 -74 -232 -74 -240 0 -7 -3 -11 -6 -7 -6
6 -33 406 -34 497 0 25 -4 40 -9 35 -5 -6 -5 -77 0 -165 5 -85 11 -225 14
-311 3 -87 7 -163 9 -170 6 -19 35 -551 43 -771 4 -123 3 -178 -5 -178 -6 0
-13 6 -16 13 -4 6 -4 2 -2 -10 2 -13 0 -26 -5 -29 -5 -3 -9 4 -9 15 0 26 -16
36 -24 15 -6 -16 17 -42 39 -45 40 -6 -94 -18 -202 -18 -131 -1 -133 -1 -133
22 0 16 3 18 9 8 5 -8 8 0 8 25 -1 22 13 84 30 139 18 55 46 147 64 205 17 58
67 212 110 344 43 131 79 246 79 255 0 9 -41 -105 -91 -254 -49 -148 -101
-304 -115 -345 -14 -41 -32 -100 -40 -130 -8 -30 -18 -64 -23 -75 -20 -49 -51
-155 -51 -176 0 -17 -3 -20 -9 -10 -6 9 -11 10 -15 2 -11 -17 -76 -14 -76 4 0
16 -42 31 -59 21 -6 -4 -8 -13 -4 -21 4 -12 -5 -15 -41 -15 -42 0 -46 2 -46
24 0 23 -16 36 -46 36 -8 0 -14 -4 -14 -10 0 -5 7 -10 15 -10 18 0 20 -17 3
-23 -19 -6 -58 14 -58 30 0 7 -5 13 -11 13 -6 0 -8 -9 -4 -20 4 -14 2 -20 -8
-20 -9 0 -17 -4 -19 -9 -4 -13 -34 -18 -33 -6 0 6 6 9 14 8 7 0 18 12 24 28 6
16 15 29 19 29 5 0 6 12 3 28 l-6 27 15 -30 c8 -16 15 -24 15 -17 1 21 -19 53
-30 47 -13 -9 -11 16 4 45 20 39 37 91 28 85 -5 -2 -12 -17 -16 -32 -3 -15
-10 -30 -13 -33 -4 -3 -15 -22 -25 -44 -22 -47 -29 -44 -17 8 6 28 6 36 -3 27
-6 -6 -29 -11 -52 -11 -29 0 -36 -3 -25 -10 12 -8 12 -10 1 -10 -11 0 -11 -3
-1 -15 7 -8 16 -13 20 -10 5 3 11 1 15 -5 3 -5 -1 -10 -9 -10 -9 0 -16 -4 -16
-10 0 -5 7 -10 15 -10 20 0 8 -28 -18 -42 -16 -8 -23 -7 -33 7 -14 19 -34 12
-34 -11 0 -22 -41 -17 -47 6 -3 12 -14 20 -27 20 -39 0 -64 12 -69 31 -6 22
-34 26 -34 4 0 -8 3 -15 7 -15 4 0 7 -7 7 -15 0 -13 -2 -13 -17 0 -9 8 -20 12
-24 8 -4 -4 -11 -1 -17 7 -7 11 -11 12 -17 3 -6 -9 -15 -7 -37 7 -17 11 -25
20 -20 20 6 0 15 -4 20 -9 6 -5 22 -3 38 3 l28 12 -27 13 c-35 15 -25 25 11
11 22 -8 30 -8 36 2 6 9 2 14 -12 16 -16 3 -18 6 -8 18 9 11 8 14 -6 14 -13 0
-16 6 -13 25 7 36 -1 31 -19 -12 -9 -21 -18 -32 -20 -25 -3 6 -9 10 -14 6 -5
-3 -9 0 -9 5 0 6 6 11 14 11 8 0 18 9 21 20 4 12 16 30 28 40 19 18 19 20 3
20 -13 0 -16 5 -12 18 5 15 4 15 -6 2 -35 -42 -111 -51 -152 -19 -15 12 -30
18 -34 15 -3 -4 0 -12 8 -17 13 -9 13 -10 0 -6 -8 2 -15 11 -15 20 0 17 -60
67 -81 67 -7 0 -20 9 -28 21 -9 13 -19 18 -27 14 -7 -5 -10 -4 -6 2 4 6 0 16
-8 23 -8 7 -15 18 -15 25 0 14 -27 28 -39 20 -8 -4 -185 172 -233 233 -19 23
-26 43 -24 63 3 24 1 27 -15 19 -10 -6 -20 -10 -22 -10 -9 0 -121 157 -149
210 -17 30 -37 63 -45 72 -17 19 -11 48 10 48 8 0 22 9 32 20 22 24 8 26 -40
6 -39 -17 -44 -13 -69 48 -20 48 -20 46 7 46 12 0 31 7 41 15 11 8 34 15 50
15 17 0 40 7 50 15 11 8 34 15 50 15 17 0 40 7 50 15 11 8 34 15 50 15 17 0
40 7 50 15 11 8 34 15 52 15 17 0 37 7 44 15 7 8 27 15 44 15 18 0 41 7 52 15
10 8 33 15 50 15 17 0 37 7 44 15 7 8 23 15 37 15 13 0 114 45 225 100 110 56
203 99 205 96 3 -3 -48 -32 -113 -65 -66 -33 -110 -60 -98 -60 11 -1 29 6 40
14 10 8 31 15 45 15 14 0 36 9 49 20 13 11 37 20 55 20 18 0 38 7 45 15 7 8
27 15 45 15 19 0 39 8 50 20 10 11 31 20 47 20 17 0 41 9 55 20 14 11 38 20
54 20 15 0 32 7 37 15 4 9 26 19 47 22 22 4 47 16 56 27 33 42 60 71 53 56 -4
-8 -14 -23 -22 -32 -14 -17 -13 -18 10 -18 14 0 33 9 43 20 10 11 30 20 45 20
15 0 39 9 53 20 14 11 35 20 47 20 12 0 33 9 47 20 14 11 38 20 53 20 27 0 66
31 54 43 -4 3 9 4 27 1 27 -5 39 -1 53 15 27 30 56 28 56 -4 0 -14 5 -25 10
-25 6 0 10 11 10 23 0 33 32 61 49 44 10 -9 16 -7 30 12 12 16 24 21 37 17 10
-3 26 -1 34 4 8 5 20 10 25 9 6 0 -2 -6 -16 -14z m232 -69 c20 -18 43 -36 50
-39 8 -4 59 -42 113 -84 91 -71 102 -83 124 -138 13 -33 41 -99 63 -148 21
-48 39 -92 39 -99 0 -6 -33 24 -73 68 -159 172 -247 273 -247 283 0 6 -7 11
-15 11 -8 0 -15 3 -15 8 0 4 -24 33 -53 64 -29 31 -51 63 -49 70 13 48 16 48
63 4z m7 -115 c40 -44 72 -84 72 -90 0 -6 4 -11 9 -11 4 0 46 -42 91 -92 46
-51 117 -129 159 -173 68 -72 82 -93 125 -195 27 -63 95 -223 151 -355 202
-473 245 -577 245 -589 0 -9 -21 -13 -72 -13 -40 1 -124 -1 -187 -2 -62 -1
-117 1 -121 6 -7 7 -41 113 -76 238 -8 28 -34 133 -59 235 -24 102 -51 208
-60 235 -22 71 -97 346 -139 505 -19 74 -39 146 -45 160 -13 33 -14 4 -1 -40
6 -19 26 -93 45 -165 19 -71 45 -164 56 -205 55 -194 83 -300 130 -490 28
-113 67 -259 86 -325 19 -66 36 -126 37 -134 2 -22 -38 -27 -211 -27 -90 1
-163 -2 -163 -6 0 -5 32 -8 71 -8 44 0 68 -4 64 -10 -6 -10 0 -12 78 -12 26
-1 47 -5 47 -9 0 -5 -5 -9 -10 -9 -6 0 -10 -6 -9 -12 1 -7 -1 -21 -6 -31 -4
-10 -5 -21 -1 -24 3 -4 6 1 6 10 0 21 19 22 26 2 9 -22 22 -18 38 13 l15 27 1
-44 c0 -35 -3 -42 -12 -33 -19 19 -48 15 -48 -8 0 -15 -7 -20 -29 -20 -20 0
-31 -6 -33 -17 -2 -10 -10 -18 -18 -19 -8 -1 -35 -2 -60 -3 -38 -3 -41 -4 -20
-11 23 -7 19 -11 -12 -14 -7 -1 -17 -5 -21 -11 -5 -5 -6 8 -3 30 l6 40 -17
-39 -16 -39 -14 54 c-7 29 -11 59 -9 66 3 7 1 13 -5 13 -6 0 -10 15 -8 33 1
17 -1 39 -4 47 -21 56 -46 185 -122 615 -51 290 -125 688 -131 705 -5 15 96
330 106 330 4 0 39 -36 78 -79z m627 -362 c737 -549 932 -696 954 -722 17 -21
-3 -45 -141 -171 -54 -48 -95 -93 -91 -99 4 -6 1 -7 -7 -2 -8 5 -17 2 -25 -8
-10 -13 -18 -9 -62 31 -28 26 -113 115 -189 197 -161 175 -223 242 -244 264
-8 9 -76 82 -150 161 -74 80 -160 172 -192 205 -42 44 -66 81 -89 135 -17 41
-39 93 -49 115 -43 99 -60 138 -60 142 0 7 68 -43 345 -248z m-771 -174 c98
-530 178 -986 174 -990 -2 -3 -14 -6 -26 -8 -29 -4 -36 -13 -17 -20 8 -4 15
-2 15 3 0 12 30 14 31 3 0 -5 3 -19 5 -33 3 -14 8 -47 13 -75 5 -27 12 -59 16
-70 5 -14 4 -16 -3 -6 -7 9 -12 10 -16 2 -4 -6 -16 -11 -26 -11 -14 0 -18 -5
-13 -16 5 -13 -1 -15 -33 -14 -54 3 -64 -1 -29 -11 21 -6 13 -7 -30 -3 -33 2
-85 0 -115 -4 -43 -7 -21 -9 104 -10 87 -1 161 -4 164 -7 3 -3 -78 -5 -180 -5
l-185 0 -6 118 c-4 64 -11 176 -16 247 -25 314 -42 724 -31 742 5 10 39 106
75 213 36 107 68 202 72 210 7 17 7 16 57 -255z m-2775 208 c7 -27 34 -106 60
-176 40 -105 45 -128 31 -124 -9 2 -28 -2 -41 -9 -13 -7 -40 -13 -60 -14 -20
0 -42 -7 -49 -15 -7 -9 -26 -15 -44 -13 -17 1 -41 -4 -53 -10 -12 -7 -37 -12
-57 -12 -19 0 -38 -4 -41 -10 -3 -5 -26 -10 -50 -10 -24 0 -47 -4 -50 -10 -3
-5 -10 -10 -16 -10 -13 0 -11 34 3 48 15 15 72 16 63 2 -3 -5 -2 -10 4 -10 6
0 9 17 8 38 -2 36 -1 37 33 38 52 2 55 3 42 16 -23 23 -13 53 23 72 28 16 34
23 29 42 -6 25 -3 27 43 28 13 1 22 6 22 11 0 6 -8 9 -17 7 -13 -2 -14 -1 -3
6 8 6 11 18 7 29 -8 24 16 48 39 40 22 -9 26 7 9 42 -19 37 -12 51 26 51 25 0
29 -5 39 -47z m266 37 c-3 -6 5 -10 18 -10 24 0 36 -15 43 -52 2 -10 -1 -18
-6 -18 -6 0 -10 -8 -10 -17 0 -15 2 -16 10 -3 7 11 8 5 4 -20 -7 -39 -7 -37
-5 -65 2 -18 3 -17 12 5 8 20 12 22 19 10 5 -8 10 -10 10 -5 0 12 86 -155 96
-188 4 -12 17 -38 31 -57 13 -19 19 -36 13 -38 -5 -2 -10 -11 -10 -20 0 -12 3
-13 12 -4 17 17 50 -40 43 -78 -3 -16 -1 -32 5 -35 6 -3 7 -17 4 -30 -3 -13 0
-26 7 -30 9 -6 11 -2 6 16 -6 23 -5 23 8 5 12 -15 12 -22 3 -27 -9 -6 -7 -13
6 -28 11 -12 14 -21 9 -21 -14 0 -63 83 -63 107 0 14 -2 15 -9 5 -7 -11 -10
-10 -15 3 -3 9 -3 22 1 27 3 6 1 8 -5 5 -11 -7 -53 57 -87 133 -11 25 -27 56
-35 70 -30 51 -100 228 -120 305 -4 17 -11 38 -15 48 -5 12 -2 17 10 17 9 0
13 -4 10 -10z m3325 -440 c74 -80 185 -200 246 -265 61 -66 154 -167 208 -225
93 -100 154 -176 145 -184 -2 -2 -22 -15 -44 -30 -22 -14 -52 -35 -66 -47 -14
-11 -41 -22 -60 -24 -75 -6 -207 -7 -217 -2 -5 4 -26 46 -47 94 -21 49 -46
106 -55 128 -67 150 -330 773 -330 780 0 11 13 -2 220 -225z m-3239 -1302 c6
-9 11 -9 23 2 9 7 20 10 23 6 4 -4 1 -11 -7 -16 -17 -11 -13 -15 20 -24 19 -6
22 -5 10 3 -13 10 -13 12 0 20 9 6 19 6 27 -1 9 -7 13 -7 13 1 0 6 5 11 10 11
6 0 10 -7 10 -15 0 -8 5 -15 10 -15 6 0 10 6 10 13 0 8 3 8 9 -2 5 -8 26 -14
52 -14 24 0 47 -4 50 -9 3 -5 17 2 30 16 29 31 45 32 61 6 15 -24 22 -25 43
-4 12 13 19 14 28 5 8 -8 7 -11 -3 -11 -12 0 -12 -2 -1 -12 11 -10 14 -10 18
0 5 13 33 17 33 4 0 -5 14 -7 30 -4 17 2 30 8 30 13 0 5 9 9 20 9 13 0 18 -5
14 -15 -4 -10 0 -15 15 -15 14 0 21 -6 21 -19 0 -12 11 -23 29 -29 29 -10 30
-10 21 14 -5 13 -6 24 -1 24 17 0 21 -45 6 -56 -17 -13 -21 -29 -5 -19 6 4 15
-7 21 -23 6 -19 23 -36 43 -46 21 -10 38 -28 46 -48 8 -18 22 -46 33 -61 10
-16 16 -31 13 -34 -9 -9 -34 27 -41 60 -4 15 -11 27 -16 27 -5 0 -9 8 -10 18
0 10 -5 5 -11 -13 -6 -16 -18 -36 -26 -44 -11 -12 -12 -16 -2 -19 28 -10 50
-38 50 -64 0 -16 5 -28 10 -28 6 0 10 9 10 20 0 11 5 20 10 20 17 0 15 -50 -2
-61 -6 -4 -8 -14 -5 -23 7 -18 -10 -32 -35 -28 -10 2 -18 -2 -18 -7 0 -6 -9
-11 -19 -11 -11 0 -27 -3 -35 -6 -13 -5 -14 -9 -4 -21 10 -12 9 -18 -7 -29
-18 -14 -18 -14 3 -14 26 0 40 -26 23 -43 -8 -8 -11 -7 -11 6 0 9 -4 17 -10
17 -5 0 -10 -8 -10 -17 0 -10 -5 -25 -10 -33 -8 -11 -9 -8 -4 13 5 24 3 27
-17 27 -18 0 -20 3 -10 9 11 7 9 10 -8 16 -29 9 -27 25 3 25 14 0 28 5 31 10
4 6 -23 10 -74 10 -65 0 -81 -3 -81 -15 0 -11 11 -15 40 -15 36 0 40 -3 40
-24 0 -13 6 -26 13 -29 10 -4 10 -7 0 -18 -7 -7 -13 -22 -13 -34 0 -29 -87
-61 -110 -40 -20 18 -80 17 -80 -2 0 -7 5 -13 12 -13 9 0 9 -3 1 -11 -15 -15
-34 -3 -26 16 3 10 -1 15 -12 15 -10 0 -15 -5 -12 -13 3 -8 1 -20 -3 -28 -6
-9 -11 0 -16 31 -4 25 -9 39 -12 32 -6 -18 -20 -15 -27 8 -3 11 -15 20 -26 20
-10 0 -19 6 -19 13 0 9 -2 9 -9 -1 -6 -10 -12 -7 -24 12 -10 14 -17 32 -17 40
0 8 -4 17 -9 20 -5 3 -7 16 -4 29 4 18 3 19 -6 7 -9 -13 -11 -13 -11 3 0 9 -4
17 -10 17 -5 0 -10 7 -10 15 0 8 4 15 9 15 4 0 6 11 3 25 -4 26 -22 35 -22 13
0 -7 -12 9 -25 35 -14 27 -22 53 -19 59 4 7 2 8 -4 4 -7 -4 -12 -3 -12 3 0 5
6 12 13 14 7 4 5 8 -8 12 -21 6 -23 9 -79 123 -36 72 -45 112 -26 112 6 0 10
12 11 28 0 15 3 21 6 15 6 -17 23 -16 23 1 0 7 -8 17 -17 20 -10 3 -29 13 -43
22 -25 15 -25 16 14 10 22 -3 43 -11 47 -18z m2631 -453 c3 3 11 -1 18 -10 16
-19 50 -20 50 0 0 8 5 15 10 15 6 0 10 -6 10 -13 0 -19 57 -71 64 -59 3 6 1
12 -5 14 -7 2 -5 9 5 17 11 9 16 10 16 2 0 -6 9 -11 20 -11 13 0 20 -7 20 -20
0 -29 22 -71 35 -66 7 2 10 -6 7 -26 -3 -21 -8 -26 -15 -19 -7 7 -14 7 -24 0
-10 -9 -15 -6 -22 12 -5 13 -7 27 -4 32 2 4 1 17 -3 30 -7 21 -7 21 -15 2 -4
-11 -5 -31 -2 -44 4 -17 2 -22 -6 -17 -6 4 -9 12 -6 17 4 5 -1 9 -9 9 -9 0
-16 7 -16 15 0 7 -6 18 -14 22 -8 4 -15 17 -17 27 -2 11 -11 21 -19 23 -12 4
-13 3 -1 -5 8 -6 12 -19 8 -31 -3 -11 1 -25 9 -32 8 -6 11 -15 8 -20 -3 -5 0
-9 6 -9 7 0 9 -8 5 -20 -4 -11 -2 -20 4 -20 6 0 11 -5 11 -10 0 -6 -11 -8 -26
-4 -18 5 -25 3 -20 -4 3 -6 2 -13 -3 -16 -6 -4 -8 7 -6 24 5 35 0 37 -29 13
-20 -18 -20 -18 -3 10 15 23 15 27 3 27 -10 0 -13 6 -10 15 4 9 0 15 -10 15
-9 0 -16 8 -16 18 0 13 -2 14 -9 4 -6 -11 -10 -10 -16 5 -5 10 -7 22 -6 26 1
5 -3 6 -9 2 -5 -3 -10 1 -10 9 0 9 6 16 13 16 9 0 9 2 -1 8 -7 5 -10 16 -6 26
4 12 10 14 19 6 6 -5 14 -8 17 -5z m850 -376 c0 -22 3 -26 20 -21 23 6 40 -15
32 -40 -3 -10 -1 -18 5 -18 6 0 11 8 11 18 1 16 2 16 15 -2 8 -10 20 -16 28
-13 11 4 13 0 10 -13 -3 -10 2 -29 11 -42 20 -28 20 -52 1 -68 -13 -11 -15 -8
-15 14 0 14 5 26 12 26 6 0 9 2 7 5 -3 2 -19 1 -36 -4 -24 -7 -33 -6 -37 5 -4
10 -14 12 -31 8 -19 -5 -25 -2 -25 10 0 9 7 16 15 16 8 0 15 7 15 15 0 8 -9
15 -20 15 -15 0 -20 7 -20 26 0 14 -4 23 -9 20 -10 -6 -21 16 -21 41 0 9 -7
21 -16 28 -11 7 -14 19 -10 32 7 21 7 21 33 -5 16 -16 26 -36 25 -53z m-599
-79 c4 -14 12 -19 28 -18 18 2 28 -5 41 -30 15 -31 17 -32 23 -13 8 27 22 27
30 1 3 -11 12 -20 19 -20 7 0 18 -10 24 -22 l11 -23 7 23 c7 25 24 30 24 7 0
-16 16 -20 24 -6 3 4 17 6 31 3 23 -4 25 -8 19 -36 -5 -25 -4 -29 7 -19 8 6
37 13 64 15 32 2 52 8 57 18 5 11 7 9 7 -6 1 -22 25 -39 42 -28 5 3 9 0 9 -5
0 -6 -9 -11 -20 -11 -13 0 -20 -7 -20 -20 0 -11 -7 -20 -15 -20 -10 0 -15 -7
-13 -17 4 -23 -69 -44 -82 -24 -6 11 -10 10 -17 -4 -7 -13 -16 -15 -33 -10
-40 13 -110 12 -110 -1 0 -6 9 -14 20 -17 25 -6 27 -27 2 -27 -10 0 -23 14
-31 33 -8 17 -19 35 -25 39 -7 5 -3 8 8 8 16 0 16 3 -8 26 -18 19 -26 37 -26
61 0 25 -4 34 -13 30 -18 -7 -41 29 -24 36 7 3 4 6 -6 6 -14 1 -17 6 -12 22 5
14 3 19 -7 18 -20 -5 -58 20 -58 36 0 22 17 18 23 -5z"/>
<path d="M12417 4362 c-53 -32 -56 -36 -42 -52 14 -16 14 -18 -5 -23 -30 -8
-14 -37 20 -37 16 0 31 4 34 9 8 13 -19 62 -29 53 -5 -4 -5 -1 -1 6 4 7 12 10
17 7 5 -4 23 2 39 12 27 16 32 16 40 3 6 -8 8 -21 5 -28 -3 -10 1 -11 16 -7
20 7 20 6 5 -24 -20 -38 -21 -36 9 -39 22 -2 25 1 19 23 -4 15 -2 25 5 25 9 0
17 -68 12 -107 -2 -15 8 -16 28 -4 11 7 10 13 -4 35 -10 15 -13 26 -6 26 6 0
11 -4 11 -10 0 -5 5 -10 10 -10 16 0 -7 39 -52 88 -21 23 -44 53 -50 67 -6 14
-14 25 -17 24 -3 -1 -32 -17 -64 -37z"/>
<path d="M12180 4292 c-56 -43 -95 -86 -92 -101 2 -7 -1 -10 -7 -7 -10 6 19
-68 31 -80 3 -3 23 11 44 32 l39 36 -30 -7 c-16 -4 -32 -11 -36 -16 -3 -5 -14
0 -24 11 -18 20 -18 20 13 16 24 -2 29 0 25 13 -3 10 -2 12 4 5 14 -19 61 -26
70 -11 4 8 20 22 35 31 15 10 26 26 25 37 -2 28 -14 23 -38 -13 l-21 -33 5 35
c3 19 7 44 9 54 5 29 -13 28 -52 -2z"/>
<path d="M12325 4206 c-43 -18 -68 -60 -60 -97 5 -23 3 -29 -10 -29 -9 0 -29
-7 -45 -15 -34 -18 -38 -11 -12 18 9 11 12 18 6 14 -6 -3 -23 -8 -38 -11 -35
-6 -38 -9 -30 -30 12 -30 94 -62 94 -36 0 6 7 10 16 10 13 0 14 -3 5 -14 -10
-12 -4 -16 36 -21 26 -4 56 -9 67 -12 12 -3 17 -1 14 8 -3 8 -22 15 -45 17
-34 3 -42 7 -46 28 -5 29 8 32 16 3 4 -14 10 -18 19 -13 19 12 139 11 134 -1
-2 -5 -15 -9 -30 -7 -24 3 -36 -15 -20 -31 12 -11 54 17 69 46 19 37 19 41 0
33 -23 -8 -18 10 9 31 21 17 71 103 59 103 -2 0 -13 -5 -24 -11 -15 -7 -24 -7
-34 1 -8 6 -29 13 -48 15 -19 1 -43 5 -53 8 -10 4 -33 0 -49 -7z"/>
<path d="M9748 8485 c-10 -13 -18 -36 -18 -52 0 -47 -151 -191 -189 -181 -11
4 -90 -54 -91 -66 0 -4 -35 -46 -79 -92 -72 -76 -108 -131 -126 -191 -3 -13
-2 -23 3 -23 5 0 14 10 20 23 8 17 9 5 5 -54 -4 -48 -2 -83 5 -95 13 -21 14
-13 17 101 1 39 9 77 25 110 13 28 22 59 21 69 -2 13 2 17 13 13 8 -3 18 -1
22 5 4 7 3 8 -4 4 -17 -10 -15 9 3 24 8 6 19 9 24 5 6 -3 9 0 6 7 -3 7 10 23
28 35 117 80 153 108 226 178 79 76 140 172 126 195 -9 15 -18 12 -37 -15z"/>
<path d="M9293 8166 c-77 -80 -118 -155 -134 -244 -14 -73 -6 -233 14 -297 9
-27 19 -63 23 -80 3 -16 9 -24 11 -17 3 7 17 -6 35 -33 16 -25 34 -48 40 -51
5 -3 -2 11 -16 32 -64 96 -106 219 -106 308 1 131 65 288 160 389 34 37 58 67
52 67 -5 0 -41 -33 -79 -74z"/>
<path d="M9509 8152 c-8 -9 -44 -43 -79 -74 -35 -32 -60 -58 -55 -58 5 0 24
15 43 33 l34 32 -7 -100 c-4 -55 -9 -103 -12 -107 -2 -5 -12 -8 -22 -8 -11 0
-28 -8 -40 -17 -28 -24 -19 -63 15 -63 13 0 24 -4 24 -10 0 -5 -4 -10 -10 -10
-5 0 -14 -9 -20 -20 -9 -16 -8 -20 5 -20 9 0 14 4 10 9 -8 14 13 24 33 16 16
-6 16 -8 -2 -20 -18 -13 -17 -14 8 -21 22 -5 24 -9 15 -26 -14 -27 -6 -44 24
-50 47 -9 76 29 45 60 -16 16 -28 15 -28 -2 0 -7 -7 -20 -16 -27 -15 -12 -16
-10 -10 28 4 23 3 43 -2 47 -14 8 27 86 45 86 15 0 15 -5 -1 -55 -4 -11 7 9
24 44 17 35 28 66 25 69 -3 3 -5 0 -5 -6 0 -7 -4 -12 -10 -12 -5 0 -10 7 -10
15 0 8 -5 15 -11 15 -7 0 -9 -10 -4 -27 5 -23 4 -25 -9 -14 -9 7 -13 17 -10
22 3 5 0 9 -7 9 -9 0 -10 28 -5 113 6 103 8 114 31 134 14 12 25 25 25 28 0
10 -15 3 -31 -13z"/>
<path d="M6394 5757 c-91 -67 -277 -250 -364 -359 -92 -113 -204 -277 -149
-216 19 20 42 51 52 69 15 27 19 30 34 18 15 -13 15 -12 5 8 -10 19 -7 28 31
74 23 28 50 61 59 73 17 21 17 21 62 -24 26 -24 46 -50 46 -56 0 -20 61 -65
84 -62 30 4 32 42 4 78 -13 16 -28 29 -34 29 -16 1 -94 87 -94 104 0 21 117
131 123 116 4 -11 6 -10 6 2 1 18 87 102 154 149 43 31 53 40 43 40 -2 0 -30
-19 -62 -43z"/>
<path d="M18790 2918 c0 -28 -141 -291 -217 -404 -77 -114 -208 -285 -267
-348 -15 -15 -25 -30 -23 -32 2 -2 19 13 37 33 81 91 125 138 132 138 12 0 49
55 44 64 -3 5 1 14 9 21 12 10 15 10 15 -1 0 -11 2 -11 9 1 6 8 7 18 5 22 -3
4 5 18 17 30 12 13 18 17 14 9 -5 -10 -4 -12 4 -7 6 4 9 11 7 15 -3 4 4 18 15
30 12 12 22 28 23 34 7 28 22 56 31 55 6 -1 17 13 27 31 9 18 23 40 31 49 27
32 32 46 13 39 -10 -4 -15 -3 -11 3 3 6 13 10 21 10 8 0 14 7 14 16 0 9 -5 12
-12 8 -6 -4 3 14 21 40 18 25 29 51 25 58 -5 7 -3 8 6 3 10 -6 12 -3 8 13 -4
12 -3 20 1 17 4 -2 8 11 9 30 1 19 -1 35 -3 35 -3 0 -5 -6 -5 -12z"/>
<path d="M7287 1435 c4 -24 2 -35 -7 -35 -8 0 -10 8 -6 25 6 23 4 25 -29 25
-40 0 -47 -15 -10 -24 14 -4 25 -13 25 -21 0 -15 21 -20 33 -9 4 4 30 8 59 10
77 4 244 11 311 13 43 1 57 5 57 16 0 13 -29 15 -205 15 -130 0 -205 4 -205
10 0 6 -6 10 -14 10 -11 0 -13 -9 -9 -35z"/>
<path d="M8571 1451 c-12 -8 -13 -14 -3 -36 13 -29 16 -63 5 -51 -4 4 -8 13
-8 19 -1 7 -5 24 -9 40 l-8 27 -200 0 c-185 0 -199 -1 -196 -17 3 -15 16 -19
68 -21 127 -6 156 -5 220 6 57 11 66 10 77 -5 9 -11 9 -20 3 -29 -8 -9 -2 -15
21 -23 41 -14 49 -14 49 2 0 9 35 23 98 39 53 15 113 33 132 41 34 15 30 15
-100 16 -74 0 -141 -3 -149 -8z"/>
<path d="M7730 1440 c0 -5 11 -10 24 -10 18 0 25 -7 30 -30 3 -16 11 -30 17
-30 7 0 9 3 6 6 -3 4 0 15 7 26 11 16 28 21 80 23 36 2 69 -1 72 -6 3 -5 25
-9 49 -9 24 0 47 -4 50 -10 3 -5 -2 -10 -13 -10 -42 0 -30 -16 20 -25 49 -10
53 -13 56 -40 4 -37 20 -55 31 -36 13 20 12 101 -1 101 -7 0 -9 -15 -4 -46 3
-28 2 -43 -4 -39 -6 3 -10 21 -10 40 0 29 -4 34 -30 40 -16 4 -30 11 -30 16 0
4 14 6 30 3 19 -4 30 -2 30 4 0 6 -7 9 -15 6 -8 -4 -15 -1 -15 5 0 6 7 11 15
11 8 0 15 5 15 10 0 6 -75 10 -205 10 -130 0 -205 -4 -205 -10z"/>
<path d="M38 1433 c-36 -4 -38 -6 -38 -38 0 -27 4 -34 23 -38 l22 -4 -22 -2
c-16 -1 -23 -7 -23 -20 0 -34 67 -16 116 31 42 40 109 62 123 40 5 -8 14 -7
34 3 22 11 105 14 429 15 222 1 509 2 638 3 571 3 1038 -1 1068 -8 20 -5 23
-10 18 -30 -9 -35 3 -31 16 5 l10 31 113 -6 c340 -17 679 -19 760 -5 33 5 89
10 125 11 36 0 85 4 110 9 44 7 -3447 10 -3522 3z"/>
<path d="M4235 1341 c3 -6 -8 -17 -25 -26 -16 -8 -30 -20 -30 -25 0 -5 21 -22
47 -37 42 -25 57 -27 145 -28 105 0 132 10 112 43 -17 27 -74 50 -144 57 -36
3 -75 10 -88 16 -15 6 -21 6 -17 0z"/>
<path d="M12373 1155 c3 -16 11 -65 18 -109 12 -71 11 -79 -4 -88 -9 -5 -17
-17 -17 -26 0 -13 11 -18 52 -20 33 -2 54 2 60 10 6 9 7 5 3 -9 -5 -17 -2 -23
9 -23 8 0 18 5 22 11 4 7 15 1 31 -17 l24 -29 -7 35 c-3 19 -11 41 -16 47 -6
7 -8 20 -4 28 3 8 2 15 -2 15 -10 0 -36 61 -52 123 -10 36 -16 45 -25 37 -10
-8 -7 -25 16 -78 16 -37 29 -76 29 -86 0 -20 0 -20 -15 0 -13 16 -14 16 -9 1
5 -13 2 -16 -10 -11 -10 4 -16 1 -17 -7 0 -8 -4 -5 -9 6 -5 11 -9 14 -9 8 -1
-7 -5 -13 -10 -13 -5 0 -12 35 -16 78 -5 45 -15 92 -27 112 l-19 35 4 -30z"/>
<path d="M9324 948 c11 -295 12 -417 3 -411 -12 7 -20 -26 -9 -40 10 -12 23
-78 25 -131 1 -16 8 -31 15 -34 8 -2 12 11 12 47 0 51 16 101 32 101 5 0 8 8
6 17 -2 12 4 18 20 19 28 2 55 24 29 24 -9 0 -17 6 -17 13 0 8 -3 7 -10 -3 -8
-13 -11 -12 -24 5 -14 18 -18 34 -20 83 -1 9 -7 22 -13 27 -9 7 -15 55 -18
144 -5 118 -3 135 12 146 9 7 24 10 31 7 10 -3 13 0 10 9 -2 8 -16 15 -30 17
-23 3 -25 7 -26 55 -3 69 -11 107 -24 107 -8 0 -9 -61 -4 -202z"/>
<path d="M10116 1139 c-4 -9 2 -99 13 -200 12 -101 26 -229 32 -284 6 -55 17
-140 25 -190 8 -49 17 -130 20 -180 3 -50 10 -117 15 -150 5 -33 9 -77 9 -97
0 -31 4 -38 20 -38 23 0 23 0 11 105 -5 44 -14 138 -21 210 -32 364 -107 863
-124 824z"/>
<path d="M11705 1053 c9 -54 84 -365 92 -383 3 -8 8 -24 10 -35 2 -11 14 -58
27 -105 34 -120 38 -140 26 -140 -15 0 -12 -17 8 -40 9 -11 38 -93 63 -183 34
-119 50 -163 63 -165 14 -3 15 0 5 25 -6 15 -35 122 -65 238 -73 286 -88 339
-95 345 -4 3 -14 43 -23 90 -18 90 -31 137 -78 293 -31 100 -45 126 -33 60z"/>
<path d="M8866 882 c-4 -7 -11 -10 -16 -7 -5 3 -11 1 -15 -5 -3 -5 3 -10 14
-10 12 0 21 -5 21 -10 0 -6 -8 -10 -17 -8 -10 2 -19 -4 -21 -13 -4 -23 45 -32
51 -10 3 10 5 8 6 -6 1 -16 5 -21 17 -16 13 5 15 2 10 -15 -6 -17 -2 -24 18
-34 14 -6 26 -19 26 -30 0 -10 6 -17 13 -16 6 2 11 -3 9 -11 -4 -19 17 -41 39
-41 11 0 19 -4 19 -10 0 -5 -9 -10 -20 -10 -11 0 -23 -7 -26 -15 -6 -16 -74
-22 -88 -8 -4 4 -49 8 -101 8 -86 0 -92 -1 -84 -17 7 -14 22 -18 62 -18 79 0
320 -39 329 -53 6 -9 8 -9 8 1 0 8 6 10 18 5 9 -5 26 -8 37 -7 11 0 36 2 55 3
l35 1 -35 17 c-19 10 -44 28 -54 42 -19 22 -20 23 -26 5 -6 -17 -10 -15 -29
16 -11 19 -21 29 -21 23 0 -7 -4 -13 -9 -13 -8 0 -5 130 4 138 2 3 -10 25 -28
51 -17 25 -30 50 -29 55 2 5 -3 5 -10 -1 -14 -11 -53 -11 -64 0 -10 10 -26 9
-20 -1 2 -4 -10 -8 -27 -8 -23 1 -33 6 -37 21 -4 14 -8 16 -14 7z"/>
</g>
</svg>
